<svg width="512" height="512" viewBox="0 0 512 512" fill="none" xmlns="http://www.w3.org/2000/svg">
<g clip-path="url(#clip0_1502_1092)">
<path d="M424 0H88C39.3989 0 0 39.3989 0 88V424C0 472.601 39.3989 512 88 512H424C472.601 512 512 472.601 512 424V88C512 39.3989 472.601 0 424 0Z" fill="#0D0F14"/>
<path d="M172 56H84C68.536 56 56 68.536 56 84V172C56 187.464 68.536 200 84 200H172C187.464 200 200 187.464 200 172V84C200 68.536 187.464 56 172 56Z" fill="#FBBF24"/>
<path d="M160 80H96C87.1634 80 80 87.1634 80 96V160C80 168.837 87.1634 176 96 176H160C168.837 176 176 168.837 176 160V96C176 87.1634 168.837 80 160 80Z" fill="#0D0F14"/>
<path d="M144 104H112C107.582 104 104 107.582 104 112V144C104 148.418 107.582 152 112 152H144C148.418 152 152 148.418 152 144V112C152 107.582 148.418 104 144 104Z" fill="#FBBF24"/>
<path d="M428 56H340C324.536 56 312 68.536 312 84V172C312 187.464 324.536 200 340 200H428C443.464 200 456 187.464 456 172V84C456 68.536 443.464 56 428 56Z" fill="#FBBF24"/>
<path d="M416 80H352C343.163 80 336 87.1634 336 96V160C336 168.837 343.163 176 352 176H416C424.837 176 432 168.837 432 160V96C432 87.1634 424.837 80 416 80Z" fill="#0D0F14"/>
<path d="M400 104H368C363.582 104 360 107.582 360 112V144C360 148.418 363.582 152 368 152H400C404.418 152 408 148.418 408 144V112C408 107.582 404.418 104 400 104Z" fill="#FBBF24"/>
<path d="M172 312H84C68.536 312 56 324.536 56 340V428C56 443.464 68.536 456 84 456H172C187.464 456 200 443.464 200 428V340C200 324.536 187.464 312 172 312Z" fill="#FBBF24"/>
<path d="M160 336H96C87.1634 336 80 343.163 80 352V416C80 424.837 87.1634 432 96 432H160C168.837 432 176 424.837 176 416V352C176 343.163 168.837 336 160 336Z" fill="#0D0F14"/>
<path d="M144 360H112C107.582 360 104 363.582 104 368V400C104 404.418 107.582 408 112 408H144C148.418 408 152 404.418 152 400V368C152 363.582 148.418 360 144 360Z" fill="#FBBF24"/>
<path d="M365.294 330H333.529C328.266 330 324 334.266 324 339.529V371.294C324 376.557 328.266 380.823 333.529 380.823H365.294C370.557 380.823 374.823 376.557 374.823 371.294V339.529C374.823 334.266 370.557 330 365.294 330Z" fill="#E7E3D6"/>
<path d="M422.471 330H390.706C385.443 330 381.177 334.266 381.177 339.529V371.294C381.177 376.557 385.443 380.823 390.706 380.823H422.471C427.734 380.823 432 376.557 432 371.294V339.529C432 334.266 427.734 330 422.471 330Z" fill="#E7E3D6"/>
<path d="M365.294 387.176H333.529C328.266 387.176 324 391.442 324 396.705V428.47C324 433.733 328.266 437.999 333.529 437.999H365.294C370.557 437.999 374.823 433.733 374.823 428.47V396.705C374.823 391.442 370.557 387.176 365.294 387.176Z" fill="#E7E3D6"/>
<path d="M422.471 387.176H390.706C385.443 387.176 381.177 391.442 381.177 396.705V428.47C381.177 433.733 385.443 437.999 390.706 437.999H422.471C427.734 437.999 432 433.733 432 428.47V396.705C432 391.442 427.734 387.176 422.471 387.176Z" fill="#E7E3D6"/>
<path d="M244.948 230.936C246.004 230.936 246.86 230.076 246.86 229.015C246.86 227.954 246.004 227.094 244.948 227.094C243.892 227.094 243.035 227.954 243.035 229.015C243.035 230.076 243.892 230.936 244.948 230.936Z" fill="white"/>
<path d="M257.02 230.936C258.076 230.936 258.932 230.076 258.932 229.015C258.932 227.954 258.076 227.094 257.02 227.094C255.964 227.094 255.108 227.954 255.108 229.015C255.108 230.076 255.964 230.936 257.02 230.936Z" fill="white"/>
<path d="M301.36 236.695H266.342C266.939 234.654 267.298 232.373 267.298 230.092C267.298 219.406 265.983 208 251.402 208C244.231 208 235.626 211.842 235.506 230.092C235.506 232.613 235.985 235.014 236.702 237.295C234.67 238.256 233.236 240.297 233.236 242.698V249.782C227.618 251.943 222.599 256.625 222.599 264.91V270.073H208.257C207.301 270.073 206.345 270.433 205.747 271.153C205.149 271.994 204.91 272.954 205.03 273.915L209.571 299.488C209.691 300.088 209.811 300.569 210.169 301.049C209.691 301.169 209.332 301.649 209.332 302.129C209.332 302.73 209.811 303.21 210.408 303.33H210.528H221.404H223.794H250.685H279.01H289.767H290.125C290.245 303.33 290.364 303.33 290.364 303.21C292.038 302.85 293.352 301.409 293.352 299.728C293.352 297.807 291.799 296.126 289.767 296.126H280.564V288.802H301.36C304.587 288.802 307.336 286.161 307.336 282.799V242.698C307.336 239.336 304.587 236.695 301.36 236.695ZM242.916 219.766C242.08 220.967 241.004 221.687 240.168 221.687C239.69 221.687 239.45 221.567 239.211 221.207C239.211 221.087 239.092 221.087 239.092 221.087C239.57 219.286 240.168 217.725 240.885 216.404C241.243 217.605 241.96 218.686 242.916 219.766ZM249.267 216.719C248.194 215.244 247.255 213.366 247.255 213.366C246.719 211.354 247.121 212.963 246.719 211.085C247.197 210.605 246.853 211.085 247.658 211.085C248.375 213.246 248.865 213.5 250.609 215.78C252.353 218.061 254.231 218.682 257.316 219.536C259.462 219.766 261.8 220.126 263.951 219.286C264.19 220.006 264.31 220.727 264.429 221.567C258.121 221.687 254.021 219.505 252.353 217.524C251.204 215.749 249.984 217.705 249.267 216.719ZM248.597 213.768C251.011 217.088 255.377 217.003 258.121 216.317C260.267 215.78 259.999 215.78 261.206 215.11C261.609 215.512 262.517 216.152 262.816 216.585C257.719 219.134 251.296 216.853 250.206 214.841C248.731 213.3 250.341 211.981 250.341 210.401C251.177 210.281 247.658 213.768 248.597 213.768ZM250.743 215.378C252.621 217.39 253.158 213.768 259.731 213.768C258.658 216.451 250.072 216.287 248.865 214.975C248.865 214.975 249.938 215.646 250.743 215.378ZM238.136 230.092C238.136 227.81 238.255 225.649 238.494 223.848C238.972 224.088 239.57 224.208 240.168 224.208C240.287 224.208 240.287 224.208 240.287 224.208C241.96 224.088 245.389 220.158 246.585 218.597C247.063 218.958 250.743 216.988 250.743 218.463C253.56 220.61 253.426 221.087 257.048 223.427C259.328 224.611 262.011 225.305 264.828 225.305C264.948 227.105 265.027 227.93 265.027 230.092C265.146 232.373 264.788 234.654 264.071 236.695H239.211C239.211 236.695 239.211 236.695 239.092 236.695C238.494 234.654 238.136 232.373 238.136 230.092ZM207.42 273.554C207.301 273.194 207.42 272.954 207.54 272.834C207.659 272.714 207.898 272.594 208.137 272.594H225.587C226.304 272.594 227.021 273.194 227.14 273.915L231.682 299.488C231.801 299.848 231.682 300.088 231.562 300.208C231.443 300.328 231.204 300.448 230.965 300.448H221.882L224.272 286.281V286.041C224.272 284.12 222.479 282.559 221.045 282.559H216.384C214.95 282.559 213.276 284 213.157 285.921L211.484 296.486L207.42 273.554ZM219.252 300.448H213.516C213.396 300.448 213.396 300.448 213.276 300.448L215.428 286.281V286.041C215.428 285.561 216.025 285.08 216.145 285.08H220.806C221.045 285.2 221.523 285.561 221.523 286.041L219.252 300.448ZM289.767 298.527C290.364 298.527 290.842 299.008 290.842 299.608C290.842 300.208 290.364 300.689 289.767 300.689H250.685C250.087 300.689 249.609 300.208 249.609 299.608C249.609 299.008 250.087 298.527 250.685 298.527H260.007H280.564H289.767ZM250.685 296.126C248.773 296.126 247.1 297.687 247.1 299.728C247.1 300.208 247.219 300.569 247.339 300.929H233.953C234.192 300.328 234.311 299.608 234.192 299.008L229.65 273.434C229.411 271.513 227.618 270.073 225.706 270.073H224.989V264.91C224.989 257.586 229.531 254.104 233.236 252.543V282.799C233.236 286.161 235.985 288.802 239.211 288.802H260.007V296.126H250.685ZM262.517 296.006V263.349C262.517 261.428 264.31 259.867 265.385 259.867H275.186C276.381 259.867 278.054 261.428 278.054 263.349V296.006H262.517ZM304.826 282.799C304.826 284.72 303.272 286.281 301.36 286.281H280.564V263.349C280.564 259.987 277.576 257.346 275.186 257.346H265.385C262.876 257.346 260.007 259.987 260.007 263.349V286.281H239.211C237.299 286.281 235.745 284.72 235.745 282.799V242.698C235.745 240.777 237.299 239.216 239.211 239.216H301.36C303.272 239.216 304.826 240.777 304.826 242.698V282.799Z" fill="white"/>
<path d="M253.023 211.662C253.023 218.331 248.309 225.44 241.315 225.44C234.322 225.44 235.94 224.586 237.373 218.488C239.762 213.857 240.479 213.366 243.227 211.171C246.572 209.833 248.364 208.247 253.023 211.662Z" fill="white"/>
</g>
<defs>
<clipPath id="clip0_1502_1092">
<rect width="512" height="512" fill="white"/>
</clipPath>
</defs>
</svg>
