<svg width="512" height="512" viewBox="0 0 512 512" fill="none" xmlns="http://www.w3.org/2000/svg">
<g clip-path="url(#clip0_1503_1125)">
<path d="M512 0H0V512H512V0Z" fill="#0D0F14"/>
<g clip-path="url(#clip1_1503_1125)">
<path d="M397.75 40H114.25C73.2429 40 40 73.2429 40 114.25V397.75C40 438.757 73.2429 472 114.25 472H397.75C438.757 472 472 438.757 472 397.75V114.25C472 73.2429 438.757 40 397.75 40Z" fill="#0D0F14"/>
<path d="M185.125 87.25H110.875C97.8273 87.25 87.25 97.8273 87.25 110.875V185.125C87.25 198.173 97.8273 208.75 110.875 208.75H185.125C198.173 208.75 208.75 198.173 208.75 185.125V110.875C208.75 97.8273 198.173 87.25 185.125 87.25Z" fill="#FBBF24"/>
<path d="M175 107.5H121C113.544 107.5 107.5 113.544 107.5 121V175C107.5 182.456 113.544 188.5 121 188.5H175C182.456 188.5 188.5 182.456 188.5 175V121C188.5 113.544 182.456 107.5 175 107.5Z" fill="#0D0F14"/>
<path d="M161.5 127.75H134.5C130.772 127.75 127.75 130.772 127.75 134.5V161.5C127.75 165.228 130.772 168.25 134.5 168.25H161.5C165.228 168.25 168.25 165.228 168.25 161.5V134.5C168.25 130.772 165.228 127.75 161.5 127.75Z" fill="#FBBF24"/>
<path d="M401.125 87.25H326.875C313.827 87.25 303.25 97.8273 303.25 110.875V185.125C303.25 198.173 313.827 208.75 326.875 208.75H401.125C414.173 208.75 424.75 198.173 424.75 185.125V110.875C424.75 97.8273 414.173 87.25 401.125 87.25Z" fill="#FBBF24"/>
<path d="M391 107.5H337C329.544 107.5 323.5 113.544 323.5 121V175C323.5 182.456 329.544 188.5 337 188.5H391C398.456 188.5 404.5 182.456 404.5 175V121C404.5 113.544 398.456 107.5 391 107.5Z" fill="#0D0F14"/>
<path d="M377.5 127.75H350.5C346.772 127.75 343.75 130.772 343.75 134.5V161.5C343.75 165.228 346.772 168.25 350.5 168.25H377.5C381.228 168.25 384.25 165.228 384.25 161.5V134.5C384.25 130.772 381.228 127.75 377.5 127.75Z" fill="#FBBF24"/>
<path d="M185.125 303.25H110.875C97.8273 303.25 87.25 313.827 87.25 326.875V401.125C87.25 414.173 97.8273 424.75 110.875 424.75H185.125C198.173 424.75 208.75 414.173 208.75 401.125V326.875C208.75 313.827 198.173 303.25 185.125 303.25Z" fill="#FBBF24"/>
<path d="M175 323.5H121C113.544 323.5 107.5 329.544 107.5 337V391C107.5 398.456 113.544 404.5 121 404.5H175C182.456 404.5 188.5 398.456 188.5 391V337C188.5 329.544 182.456 323.5 175 323.5Z" fill="#0D0F14"/>
<path d="M161.5 343.75H134.5C130.772 343.75 127.75 346.772 127.75 350.5V377.5C127.75 381.228 130.772 384.25 134.5 384.25H161.5C165.228 384.25 168.25 381.228 168.25 377.5V350.5C168.25 346.772 165.228 343.75 161.5 343.75Z" fill="#FBBF24"/>
<path d="M348.217 318.438H321.415C316.975 318.438 313.375 322.037 313.375 326.478V353.279C313.375 357.72 316.975 361.32 321.415 361.32H348.217C352.657 361.32 356.257 357.72 356.257 353.279V326.478C356.257 322.037 352.657 318.438 348.217 318.438Z" fill="#E7E3D6"/>
<path d="M396.459 318.438H369.658C365.217 318.438 361.618 322.037 361.618 326.478V353.279C361.618 357.72 365.217 361.32 369.658 361.32H396.459C400.9 361.32 404.5 357.72 404.5 353.279V326.478C404.5 322.037 400.9 318.438 396.459 318.438Z" fill="#E7E3D6"/>
<path d="M348.217 366.68H321.415C316.975 366.68 313.375 370.279 313.375 374.72V401.521C313.375 405.962 316.975 409.562 321.415 409.562H348.217C352.657 409.562 356.257 405.962 356.257 401.521V374.72C356.257 370.279 352.657 366.68 348.217 366.68Z" fill="#E7E3D6"/>
<path d="M396.459 366.68H369.658C365.217 366.68 361.618 370.279 361.618 374.72V401.521C361.618 405.962 365.217 409.562 369.658 409.562H396.459C400.9 409.562 404.5 405.962 404.5 401.521V374.72C404.5 370.279 400.9 366.68 396.459 366.68Z" fill="#E7E3D6"/>
<path d="M246.675 234.853C247.566 234.853 248.288 234.127 248.288 233.232C248.288 232.337 247.566 231.611 246.675 231.611C245.784 231.611 245.061 232.337 245.061 233.232C245.061 234.127 245.784 234.853 246.675 234.853Z" fill="white"/>
<path d="M256.861 234.853C257.752 234.853 258.474 234.127 258.474 233.232C258.474 232.337 257.752 231.611 256.861 231.611C255.969 231.611 255.247 232.337 255.247 233.232C255.247 234.127 255.969 234.853 256.861 234.853Z" fill="white"/>
<path d="M294.272 239.711H264.726C265.23 237.989 265.532 236.065 265.532 234.14C265.532 225.124 264.423 215.5 252.121 215.5C246.07 215.5 238.809 218.742 238.709 234.14C238.709 236.267 239.112 238.293 239.717 240.218C238.003 241.028 236.793 242.751 236.793 244.777V250.753C232.053 252.577 227.818 256.528 227.818 263.518V267.874H215.717C214.91 267.874 214.103 268.178 213.599 268.785C213.095 269.495 212.893 270.305 212.994 271.115L216.826 292.693C216.927 293.199 217.028 293.605 217.33 294.01C216.927 294.111 216.624 294.516 216.624 294.922C216.624 295.428 217.028 295.833 217.532 295.935H217.633H226.809H228.826H251.515H275.415H284.491H284.793C284.894 295.935 284.995 295.935 284.995 295.833C286.407 295.529 287.516 294.314 287.516 292.896C287.516 291.275 286.205 289.856 284.491 289.856H276.726V283.677H294.272C296.995 283.677 299.314 281.448 299.314 278.612V244.777C299.314 241.94 296.995 239.711 294.272 239.711ZM244.961 225.428C244.255 226.441 243.347 227.049 242.641 227.049C242.238 227.049 242.036 226.947 241.835 226.643C241.835 226.542 241.734 226.542 241.734 226.542C242.137 225.022 242.641 223.706 243.246 222.591C243.549 223.604 244.154 224.516 244.961 225.428ZM250.319 222.857C249.414 221.612 248.622 220.027 248.622 220.027C248.169 218.33 248.508 219.688 248.169 218.103C248.572 217.698 248.282 218.103 248.961 218.103C249.566 219.927 249.98 220.141 251.451 222.065C252.923 223.989 254.507 224.513 257.11 225.234C258.921 225.428 260.894 225.732 262.709 225.022C262.911 225.63 263.011 226.238 263.112 226.947C257.79 227.049 254.33 225.208 252.923 223.536C251.953 222.038 250.924 223.689 250.319 222.857ZM249.753 220.367C251.791 223.168 255.475 223.096 257.79 222.517C259.6 222.065 259.374 222.065 260.393 221.499C260.732 221.838 261.499 222.378 261.751 222.744C257.45 224.894 252.031 222.97 251.112 221.272C249.867 219.972 251.225 218.859 251.225 217.526C251.931 217.425 248.961 220.367 249.753 220.367ZM251.564 221.725C253.149 223.423 253.602 220.367 259.148 220.367C258.242 222.631 250.999 222.492 249.98 221.386C249.98 221.386 250.885 221.951 251.564 221.725ZM240.927 234.14C240.927 232.215 241.028 230.392 241.23 228.872C241.633 229.075 242.137 229.176 242.641 229.176C242.742 229.176 242.742 229.176 242.742 229.176C244.154 229.075 247.047 225.758 248.056 224.442C248.459 224.745 251.564 223.083 251.564 224.328C253.941 226.139 253.828 226.542 256.884 228.516C258.808 229.515 261.072 230.101 263.449 230.101C263.55 231.62 263.616 232.316 263.616 234.14C263.717 236.065 263.415 237.989 262.81 239.711H241.835C241.835 239.711 241.835 239.711 241.734 239.711C241.23 237.989 240.927 236.065 240.927 234.14ZM215.011 270.811C214.91 270.508 215.011 270.305 215.112 270.204C215.212 270.102 215.414 270.001 215.616 270.001H230.339C230.944 270.001 231.549 270.508 231.65 271.115L235.482 292.693C235.582 292.997 235.482 293.199 235.381 293.301C235.28 293.402 235.078 293.503 234.877 293.503H227.213L229.229 281.55V281.347C229.229 279.726 227.717 278.409 226.507 278.409H222.574C221.364 278.409 219.952 279.625 219.851 281.246L218.439 290.16L215.011 270.811ZM224.994 293.503H220.154C220.053 293.503 220.053 293.503 219.952 293.503L221.767 281.55V281.347C221.767 280.942 222.271 280.537 222.372 280.537H226.305C226.507 280.638 226.91 280.942 226.91 281.347L224.994 293.503ZM284.491 291.883C284.995 291.883 285.398 292.288 285.398 292.794C285.398 293.301 284.995 293.706 284.491 293.706H251.515C251.011 293.706 250.608 293.301 250.608 292.794C250.608 292.288 251.011 291.883 251.515 291.883H259.381H276.726H284.491ZM251.515 289.856C249.902 289.856 248.49 291.173 248.49 292.896C248.49 293.301 248.591 293.605 248.692 293.909H237.398C237.599 293.402 237.7 292.794 237.599 292.288L233.767 270.71C233.566 269.089 232.053 267.874 230.44 267.874H229.835V263.518C229.835 257.338 233.667 254.4 236.793 253.083V278.612C236.793 281.448 239.112 283.677 241.835 283.677H259.381V289.856H251.515ZM261.499 289.755V262.201C261.499 260.58 263.011 259.263 263.919 259.263H272.188C273.196 259.263 274.608 260.58 274.608 262.201V289.755H261.499ZM297.197 278.612C297.197 280.233 295.886 281.55 294.272 281.55H276.726V262.201C276.726 259.364 274.205 257.136 272.188 257.136H263.919C261.801 257.136 259.381 259.364 259.381 262.201V281.55H241.835C240.221 281.55 238.91 280.233 238.91 278.612V244.777C238.91 243.156 240.221 241.839 241.835 241.839H294.272C295.886 241.839 297.197 243.156 297.197 244.777V278.612Z" fill="white"/>
<path d="M293.023 251.662C293.023 258.331 288.309 265.44 281.315 265.44C274.322 265.44 275.94 264.586 277.373 258.488C279.762 253.857 280.479 253.366 283.227 251.171C286.572 249.833 288.364 248.247 293.023 251.662Z" fill="white"/>
</g>
</g>
<defs>
<clipPath id="clip0_1503_1125">
<rect width="512" height="512" fill="white"/>
</clipPath>
<clipPath id="clip1_1503_1125">
<rect width="432" height="432" fill="white" transform="translate(40 40)"/>
</clipPath>
</defs>
</svg>
