<svg xmlns="http://www.w3.org/2000/svg" viewBox="0 0 512 512" role="img" aria-label="QR Studio">
  <!-- Maskable icon: full bleed bg, mark sized to ~60% with 20% safe padding all sides. -->
  <rect width="512" height="512" fill="#0d0f14"/>
  <g transform="translate(102 102) scale(0.6)">
    <g fill="#fbbf24">
      <rect x="64"  y="64"  width="128" height="128"/>
      <rect x="320" y="64"  width="128" height="128"/>
      <rect x="64"  y="320" width="128" height="128"/>
    </g>
    <g fill="#0d0f14">
      <rect x="88"  y="88"  width="80" height="80"/>
      <rect x="344" y="88"  width="80" height="80"/>
      <rect x="88"  y="344" width="80" height="80"/>
    </g>
    <g fill="#fbbf24">
      <rect x="104" y="104" width="48" height="48"/>
      <rect x="360" y="104" width="48" height="48"/>
      <rect x="104" y="360" width="48" height="48"/>
    </g>
    <g fill="#e7e3d6">
      <rect x="240" y="240" width="32" height="32"/>
      <rect x="304" y="240" width="32" height="32"/>
      <rect x="368" y="240" width="32" height="32"/>
      <rect x="240" y="304" width="32" height="32"/>
      <rect x="368" y="304" width="32" height="32"/>
      <rect x="240" y="368" width="32" height="32"/>
      <rect x="304" y="368" width="32" height="32"/>
      <rect x="368" y="368" width="32" height="32"/>
    </g>
  </g>
</svg>
