<svg width="1200" height="630" viewBox="0 0 1200 630" fill="none" xmlns="http://www.w3.org/2000/svg">
<g clip-path="url(#clip0_1503_1184)">
<path d="M1200 0H0V630H1200V0Z" fill="#0D0F14"/>
<path d="M504.2 280.58V273.944C504.2 270.472 505.32 267.7 507.56 265.628C509.8 263.556 512.74 262.52 516.38 262.52C518.676 262.52 520.58 262.912 522.092 263.696C523.604 264.48 524.864 265.432 525.872 266.552C526.936 267.672 527.86 268.82 528.644 269.996C529.484 271.116 530.324 272.068 531.164 272.852C532.004 273.58 532.984 273.944 534.104 273.944C535.168 273.944 535.952 273.636 536.456 273.02C537.016 272.348 537.296 271.452 537.296 270.332V264.2H546.2V270.836C546.2 274.252 545.08 277.024 542.84 279.152C540.656 281.224 537.716 282.26 534.02 282.26C531.724 282.26 529.82 281.868 528.308 281.084C526.796 280.3 525.508 279.348 524.444 278.228C523.436 277.108 522.512 275.988 521.672 274.868C520.888 273.692 520.076 272.74 519.236 272.012C518.396 271.228 517.416 270.836 516.296 270.836C515.288 270.836 514.504 271.144 513.944 271.76C513.384 272.376 513.104 273.272 513.104 274.448V280.58H504.2ZM555.407 311.24L584.807 232.28H595.727L566.327 311.24H555.407ZM1053.2 327.2V216.32H1070.84V327.2H1053.2Z" fill="#FBBF24"/>
<path d="M634.166 317.12V304.184L634.502 293.18H632.066L634.334 290.744C634.334 294.496 633.214 297.464 630.974 299.648C628.79 301.776 625.794 302.84 621.986 302.84C617.338 302.84 613.642 301.244 610.898 298.052C608.154 294.86 606.782 290.548 606.782 285.116V272.6C606.782 267.224 608.154 262.94 610.898 259.748C613.698 256.556 617.394 254.96 621.986 254.96C625.794 254.96 628.79 256.052 630.974 258.236C633.214 260.364 634.334 263.304 634.334 267.056L632.066 264.62H634.418V255.8H644.666V317.12H634.166ZM625.682 293.768C628.37 293.768 630.442 292.984 631.898 291.416C633.41 289.792 634.166 287.552 634.166 284.696V273.104C634.166 270.248 633.41 268.036 631.898 266.468C630.442 264.844 628.37 264.032 625.682 264.032C622.994 264.032 620.922 264.816 619.466 266.384C618.01 267.952 617.282 270.192 617.282 273.104V284.696C617.282 287.608 618.01 289.848 619.466 291.416C620.922 292.984 622.994 293.768 625.682 293.768ZM658.998 302V255.8H668.91V264.62H671.514L668.406 269.996C668.406 265.012 669.526 261.26 671.766 258.74C674.006 256.22 677.31 254.96 681.678 254.96C686.662 254.96 690.582 256.5 693.438 259.58C696.294 262.66 697.722 266.916 697.722 272.348V275.708H686.718V273.104C686.718 270.136 685.934 267.84 684.366 266.216C682.854 264.592 680.754 263.78 678.066 263.78C675.322 263.78 673.194 264.592 671.682 266.216C670.226 267.84 669.498 270.136 669.498 273.104V302H658.998ZM713.229 279.152V269.408H740.109V279.152H713.229ZM775.272 302.756C771.744 302.756 768.664 302.196 766.032 301.076C763.4 299.956 761.328 298.416 759.816 296.456C758.36 294.44 757.576 292.088 757.464 289.4H767.964C768.076 290.856 768.776 292.032 770.064 292.928C771.408 293.824 773.144 294.272 775.272 294.272H778.968C781.544 294.272 783.476 293.768 784.764 292.76C786.052 291.752 786.696 290.38 786.696 288.644C786.696 287.02 786.108 285.76 784.932 284.864C783.812 283.912 782.048 283.296 779.64 283.016L773.928 282.176C768.664 281.448 764.8 280.048 762.336 277.976C759.872 275.904 758.64 272.796 758.64 268.652C758.64 264.34 760.096 261.008 763.008 258.656C765.92 256.248 770.204 255.044 775.86 255.044H779.052C784.204 255.044 788.32 256.192 791.4 258.488C794.48 260.784 796.132 263.864 796.356 267.728H785.856C785.688 266.496 784.988 265.488 783.756 264.704C782.58 263.92 781.012 263.528 779.052 263.528H775.86C773.452 263.528 771.688 263.976 770.568 264.872C769.504 265.712 768.972 266.972 768.972 268.652C768.972 270.22 769.448 271.396 770.4 272.18C771.352 272.908 772.892 273.44 775.02 273.776L780.984 274.616C786.472 275.4 790.504 276.884 793.08 279.068C795.712 281.196 797.028 284.36 797.028 288.56C797.028 293.04 795.488 296.54 792.408 299.06C789.384 301.524 784.904 302.756 778.968 302.756H775.272ZM832.443 302C828.019 302 824.547 300.768 822.027 298.304C819.563 295.84 818.331 292.452 818.331 288.14V265.292H805.815V255.8H818.331V242.78H828.915V255.8H846.639V265.292H828.915V288.14C828.915 291.052 830.343 292.508 833.199 292.508H845.799V302H832.443ZM877.77 302.84C871.89 302.84 867.27 301.216 863.91 297.968C860.55 294.664 858.87 290.184 858.87 284.528V255.8H869.37V284.444C869.37 287.412 870.098 289.708 871.554 291.332C873.01 292.9 875.082 293.684 877.77 293.684C880.402 293.684 882.446 292.9 883.902 291.332C885.414 289.708 886.17 287.412 886.17 284.444V255.8H896.67V284.528C896.67 290.184 894.962 294.664 891.546 297.968C888.13 301.216 883.538 302.84 877.77 302.84ZM924.19 302.84C919.598 302.84 915.874 301.244 913.018 298.052C910.218 294.86 908.818 290.576 908.818 285.2V272.684C908.818 267.252 910.218 262.94 913.018 259.748C915.818 256.556 919.542 254.96 924.19 254.96C927.998 254.96 931.022 256.052 933.262 258.236C935.502 260.364 936.622 263.304 936.622 267.056L934.27 264.62H936.706L936.37 253.616V240.68H946.87V302H936.622V293.18H934.27L936.622 290.744C936.622 294.496 935.502 297.464 933.262 299.648C931.022 301.776 927.998 302.84 924.19 302.84ZM927.886 293.768C930.574 293.768 932.646 292.984 934.102 291.416C935.614 289.792 936.37 287.552 936.37 284.696V273.104C936.37 270.248 935.614 268.036 934.102 266.468C932.646 264.844 930.574 264.032 927.886 264.032C925.198 264.032 923.098 264.816 921.586 266.384C920.074 267.952 919.318 270.192 919.318 273.104V284.696C919.318 287.608 920.074 289.848 921.586 291.416C923.098 292.984 925.198 293.768 927.886 293.768ZM959.689 302V292.424H975.817V265.292H961.789V255.8H985.897V292.424H1000.18V302H959.689ZM980.017 248.072C977.889 248.072 976.209 247.54 974.977 246.476C973.745 245.356 973.129 243.872 973.129 242.024C973.129 240.176 973.745 238.72 974.977 237.656C976.209 236.536 977.889 235.976 980.017 235.976C982.145 235.976 983.825 236.536 985.057 237.656C986.289 238.72 986.905 240.176 986.905 242.024C986.905 243.872 986.289 245.356 985.057 246.476C983.825 247.54 982.145 248.072 980.017 248.072ZM1028.87 302.756C1024.95 302.756 1021.54 302.028 1018.62 300.572C1015.77 299.06 1013.53 296.96 1011.9 294.272C1010.34 291.528 1009.55 288.308 1009.55 284.612V273.188C1009.55 269.492 1010.34 266.3 1011.9 263.612C1013.53 260.868 1015.77 258.768 1018.62 257.312C1021.54 255.8 1024.95 255.044 1028.87 255.044C1032.85 255.044 1036.26 255.8 1039.12 257.312C1041.98 258.768 1044.19 260.868 1045.76 263.612C1047.38 266.3 1048.19 269.464 1048.19 273.104V284.612C1048.19 288.308 1047.38 291.528 1045.76 294.272C1044.19 296.96 1041.98 299.06 1039.12 300.572C1036.26 302.028 1032.85 302.756 1028.87 302.756ZM1028.87 293.6C1031.67 293.6 1033.83 292.844 1035.34 291.332C1036.91 289.764 1037.69 287.524 1037.69 284.612V273.188C1037.69 270.22 1036.91 267.98 1035.34 266.468C1033.83 264.956 1031.67 264.2 1028.87 264.2C1026.13 264.2 1023.97 264.956 1022.4 266.468C1020.84 267.98 1020.05 270.22 1020.05 273.188V284.612C1020.05 287.524 1020.84 289.764 1022.4 291.332C1023.97 292.844 1026.13 293.6 1028.87 293.6Z" fill="#E7E3D6"/>
<path d="M517.557 344C517.322 343.283 517.013 342.64 516.63 342.072C516.254 341.496 515.803 341.006 515.277 340.602C514.759 340.197 514.169 339.888 513.509 339.675C512.848 339.462 512.124 339.355 511.335 339.355C510.043 339.355 508.867 339.689 507.809 340.357C506.751 341.024 505.909 342.008 505.284 343.308C504.659 344.607 504.347 346.202 504.347 348.091C504.347 349.98 504.663 351.575 505.295 352.874C505.927 354.174 506.783 355.158 507.862 355.825C508.942 356.493 510.156 356.827 511.506 356.827C512.756 356.827 513.857 356.56 514.808 356.028C515.767 355.488 516.513 354.728 517.045 353.748C517.585 352.761 517.855 351.599 517.855 350.264L518.665 350.435H512.102V348.091H520.412V350.435C520.412 352.232 520.028 353.794 519.261 355.122C518.501 356.45 517.45 357.48 516.108 358.212C514.773 358.936 513.239 359.298 511.506 359.298C509.574 359.298 507.876 358.844 506.413 357.935C504.957 357.026 503.821 355.733 503.004 354.057C502.195 352.381 501.79 350.392 501.79 348.091C501.79 346.365 502.021 344.813 502.482 343.435C502.951 342.05 503.612 340.871 504.464 339.898C505.316 338.925 506.325 338.18 507.489 337.661C508.654 337.143 509.936 336.884 511.335 336.884C512.486 336.884 513.558 337.058 514.553 337.406C515.554 337.746 516.445 338.233 517.227 338.865C518.015 339.49 518.672 340.239 519.197 341.113C519.723 341.979 520.085 342.942 520.284 344H517.557ZM531.457 359.341C529.88 359.341 528.52 358.993 527.377 358.297C526.24 357.594 525.363 356.614 524.745 355.357C524.134 354.092 523.829 352.622 523.829 350.946C523.829 349.27 524.134 347.793 524.745 346.514C525.363 345.229 526.222 344.227 527.323 343.51C528.431 342.786 529.724 342.423 531.201 342.423C532.053 342.423 532.895 342.565 533.726 342.849C534.557 343.134 535.313 343.595 535.995 344.234C536.677 344.866 537.22 345.705 537.625 346.749C538.03 347.793 538.232 349.078 538.232 350.605V351.67H525.619V349.497H535.676C535.676 348.574 535.491 347.75 535.122 347.026C534.759 346.301 534.241 345.729 533.566 345.31C532.899 344.891 532.11 344.682 531.201 344.682C530.2 344.682 529.333 344.93 528.602 345.428C527.877 345.918 527.32 346.557 526.929 347.345C526.539 348.134 526.343 348.979 526.343 349.881V351.33C526.343 352.565 526.556 353.613 526.982 354.472C527.416 355.325 528.016 355.974 528.783 356.422C529.55 356.862 530.441 357.082 531.457 357.082C532.117 357.082 532.714 356.99 533.247 356.805C533.786 356.614 534.252 356.33 534.642 355.953C535.033 355.57 535.335 355.094 535.548 354.526L537.977 355.207C537.721 356.031 537.291 356.756 536.688 357.381C536.084 357.999 535.338 358.482 534.45 358.83C533.563 359.17 532.565 359.341 531.457 359.341ZM544.571 349.156V359H542.057V342.636H544.486V345.193H544.699C545.083 344.362 545.665 343.695 546.446 343.19C547.227 342.679 548.236 342.423 549.472 342.423C550.58 342.423 551.549 342.651 552.38 343.105C553.211 343.553 553.857 344.234 554.319 345.151C554.781 346.06 555.012 347.21 555.012 348.602V359H552.497V348.773C552.497 347.487 552.164 346.486 551.496 345.768C550.828 345.044 549.912 344.682 548.747 344.682C547.945 344.682 547.227 344.856 546.595 345.204C545.97 345.552 545.477 346.06 545.115 346.727C544.752 347.395 544.571 348.205 544.571 349.156ZM566.467 359.341C564.89 359.341 563.53 358.993 562.386 358.297C561.25 357.594 560.373 356.614 559.755 355.357C559.144 354.092 558.839 352.622 558.839 350.946C558.839 349.27 559.144 347.793 559.755 346.514C560.373 345.229 561.232 344.227 562.333 343.51C563.441 342.786 564.734 342.423 566.211 342.423C567.063 342.423 567.905 342.565 568.736 342.849C569.567 343.134 570.323 343.595 571.005 344.234C571.687 344.866 572.23 345.705 572.635 346.749C573.04 347.793 573.242 349.078 573.242 350.605V351.67H560.629V349.497H570.685C570.685 348.574 570.501 347.75 570.131 347.026C569.769 346.301 569.251 345.729 568.576 345.31C567.908 344.891 567.12 344.682 566.211 344.682C565.21 344.682 564.343 344.93 563.612 345.428C562.887 345.918 562.33 346.557 561.939 347.345C561.548 348.134 561.353 348.979 561.353 349.881V351.33C561.353 352.565 561.566 353.613 561.992 354.472C562.425 355.325 563.026 355.974 563.793 356.422C564.56 356.862 565.451 357.082 566.467 357.082C567.127 357.082 567.724 356.99 568.256 356.805C568.796 356.614 569.261 356.33 569.652 355.953C570.043 355.57 570.344 355.094 570.558 354.526L572.987 355.207C572.731 356.031 572.301 356.756 571.697 357.381C571.094 357.999 570.348 358.482 569.46 358.83C568.572 359.17 567.575 359.341 566.467 359.341ZM577.067 359V342.636H579.496V345.108H579.666C579.964 344.298 580.504 343.641 581.286 343.137C582.067 342.633 582.947 342.381 583.928 342.381C584.112 342.381 584.343 342.384 584.62 342.391C584.897 342.398 585.107 342.409 585.249 342.423V344.98C585.163 344.959 584.968 344.927 584.663 344.884C584.364 344.835 584.048 344.81 583.714 344.81C582.919 344.81 582.209 344.977 581.584 345.31C580.966 345.637 580.476 346.092 580.114 346.674C579.759 347.249 579.581 347.906 579.581 348.645V359H577.067ZM593.044 359.384C592.007 359.384 591.066 359.188 590.221 358.798C589.376 358.4 588.705 357.828 588.208 357.082C587.71 356.33 587.462 355.42 587.462 354.355C587.462 353.418 587.646 352.658 588.016 352.075C588.385 351.486 588.879 351.024 589.497 350.69C590.115 350.357 590.796 350.108 591.542 349.945C592.295 349.774 593.051 349.639 593.811 349.54C594.806 349.412 595.612 349.316 596.23 349.252C596.855 349.181 597.309 349.064 597.593 348.901C597.884 348.737 598.03 348.453 598.03 348.048V347.963C598.03 346.912 597.742 346.095 597.167 345.513C596.599 344.93 595.736 344.639 594.578 344.639C593.378 344.639 592.437 344.902 591.755 345.428C591.073 345.953 590.594 346.514 590.317 347.111L587.931 346.259C588.357 345.264 588.925 344.49 589.635 343.936C590.352 343.375 591.134 342.984 591.979 342.764C592.831 342.537 593.669 342.423 594.493 342.423C595.019 342.423 595.622 342.487 596.304 342.615C596.993 342.736 597.657 342.988 598.296 343.371C598.943 343.755 599.479 344.334 599.905 345.108C600.331 345.882 600.544 346.919 600.544 348.219V359H598.03V356.784H597.902C597.732 357.139 597.448 357.519 597.05 357.924C596.652 358.329 596.123 358.673 595.463 358.957C594.802 359.241 593.996 359.384 593.044 359.384ZM593.428 357.125C594.422 357.125 595.26 356.93 595.942 356.539C596.631 356.148 597.149 355.644 597.497 355.026C597.852 354.408 598.03 353.759 598.03 353.077V350.776C597.923 350.903 597.689 351.021 597.327 351.127C596.972 351.227 596.56 351.315 596.091 351.393C595.629 351.464 595.178 351.528 594.738 351.585C594.305 351.635 593.953 351.678 593.683 351.713C593.03 351.798 592.419 351.937 591.851 352.129C591.29 352.313 590.835 352.594 590.487 352.97C590.146 353.339 589.976 353.844 589.976 354.483C589.976 355.357 590.299 356.017 590.945 356.464C591.599 356.905 592.426 357.125 593.428 357.125ZM612.25 342.636V344.767H603.77V342.636H612.25ZM606.241 338.716H608.755V354.312C608.755 355.023 608.858 355.555 609.064 355.911C609.277 356.259 609.547 356.493 609.874 356.614C610.208 356.727 610.559 356.784 610.929 356.784C611.206 356.784 611.433 356.77 611.61 356.741C611.788 356.706 611.93 356.678 612.037 356.656L612.548 358.915C612.377 358.979 612.14 359.043 611.834 359.107C611.529 359.178 611.142 359.213 610.673 359.213C609.963 359.213 609.267 359.06 608.585 358.755C607.91 358.45 607.349 357.984 606.902 357.359C606.461 356.734 606.241 355.946 606.241 354.994V338.716ZM622.717 359.341C621.14 359.341 619.78 358.993 618.636 358.297C617.5 357.594 616.623 356.614 616.005 355.357C615.394 354.092 615.089 352.622 615.089 350.946C615.089 349.27 615.394 347.793 616.005 346.514C616.623 345.229 617.482 344.227 618.583 343.51C619.691 342.786 620.984 342.423 622.461 342.423C623.313 342.423 624.155 342.565 624.986 342.849C625.817 343.134 626.573 343.595 627.255 344.234C627.937 344.866 628.48 345.705 628.885 346.749C629.29 347.793 629.492 349.078 629.492 350.605V351.67H616.879V349.497H626.935C626.935 348.574 626.751 347.75 626.381 347.026C626.019 346.301 625.501 345.729 624.826 345.31C624.158 344.891 623.37 344.682 622.461 344.682C621.46 344.682 620.593 344.93 619.862 345.428C619.137 345.918 618.58 346.557 618.189 347.345C617.798 348.134 617.603 348.979 617.603 349.881V351.33C617.603 352.565 617.816 353.613 618.242 354.472C618.675 355.325 619.276 355.974 620.043 356.422C620.81 356.862 621.701 357.082 622.717 357.082C623.377 357.082 623.974 356.99 624.506 356.805C625.046 356.614 625.511 356.33 625.902 355.953C626.293 355.57 626.594 355.094 626.808 354.526L629.237 355.207C628.981 356.031 628.551 356.756 627.947 357.381C627.344 357.999 626.598 358.482 625.71 358.83C624.822 359.17 623.825 359.341 622.717 359.341ZM647.933 359.298C646.499 359.298 645.263 359.036 644.226 358.51C643.189 357.984 642.39 357.263 641.829 356.347C641.268 355.431 640.987 354.384 640.987 353.205C640.987 352.295 641.179 351.489 641.562 350.786C641.953 350.076 642.489 349.419 643.171 348.815C643.86 348.205 644.652 347.594 645.547 346.983L648.7 344.639C649.318 344.234 649.812 343.801 650.181 343.339C650.558 342.878 650.746 342.274 650.746 341.528C650.746 340.974 650.501 340.438 650.011 339.92C649.528 339.401 648.892 339.142 648.104 339.142C647.55 339.142 647.06 339.284 646.634 339.568C646.214 339.845 645.884 340.2 645.643 340.634C645.408 341.06 645.291 341.5 645.291 341.955C645.291 342.466 645.43 342.984 645.707 343.51C645.991 344.028 646.349 344.561 646.783 345.108C647.223 345.648 647.678 346.202 648.146 346.77L658.161 359H655.135L646.868 349.028C646.101 348.105 645.405 347.267 644.78 346.514C644.155 345.761 643.658 345.019 643.288 344.288C642.919 343.556 642.734 342.764 642.734 341.912C642.734 340.932 642.951 340.072 643.384 339.334C643.825 338.588 644.439 338.009 645.227 337.597C646.023 337.178 646.953 336.969 648.018 336.969C649.112 336.969 650.053 337.182 650.842 337.608C651.63 338.027 652.237 338.585 652.663 339.281C653.089 339.969 653.303 340.719 653.303 341.528C653.303 342.572 653.043 343.478 652.525 344.245C652.006 345.012 651.3 345.726 650.405 346.386L646.058 349.625C645.078 350.349 644.414 351.053 644.066 351.734C643.718 352.416 643.544 352.906 643.544 353.205C643.544 353.886 643.722 354.522 644.077 355.112C644.432 355.701 644.933 356.177 645.579 356.539C646.225 356.901 646.982 357.082 647.848 357.082C648.672 357.082 649.474 356.908 650.256 356.56C651.037 356.205 651.744 355.694 652.376 355.026C653.015 354.359 653.519 353.556 653.888 352.619C654.265 351.681 654.453 350.626 654.453 349.455H656.882C656.882 350.903 656.715 352.086 656.381 353.002C656.048 353.918 655.671 354.636 655.252 355.154C654.833 355.673 654.496 356.06 654.24 356.315C654.155 356.422 654.077 356.528 654.006 356.635C653.935 356.741 653.857 356.848 653.771 356.955C653.068 357.743 652.18 358.332 651.108 358.723C650.036 359.107 648.977 359.298 647.933 359.298ZM680.972 346.301L678.714 346.94C678.572 346.564 678.362 346.198 678.085 345.843C677.815 345.481 677.446 345.183 676.977 344.948C676.508 344.714 675.908 344.597 675.177 344.597C674.175 344.597 673.341 344.827 672.673 345.289C672.013 345.744 671.682 346.322 671.682 347.026C671.682 347.651 671.91 348.144 672.364 348.506C672.819 348.869 673.529 349.17 674.495 349.412L676.924 350.009C678.387 350.364 679.477 350.907 680.194 351.638C680.912 352.363 681.27 353.297 681.27 354.44C681.27 355.378 681.001 356.216 680.461 356.955C679.928 357.693 679.182 358.276 678.224 358.702C677.265 359.128 676.15 359.341 674.878 359.341C673.209 359.341 671.828 358.979 670.734 358.254C669.64 357.53 668.948 356.472 668.657 355.08L671.043 354.483C671.27 355.364 671.7 356.024 672.332 356.464C672.971 356.905 673.806 357.125 674.836 357.125C676.008 357.125 676.938 356.876 677.627 356.379C678.323 355.875 678.671 355.271 678.671 354.568C678.671 354 678.472 353.524 678.074 353.141C677.677 352.75 677.066 352.459 676.242 352.267L673.515 351.628C672.016 351.273 670.915 350.722 670.212 349.977C669.516 349.224 669.168 348.283 669.168 347.153C669.168 346.23 669.427 345.413 669.946 344.703C670.471 343.993 671.185 343.435 672.087 343.031C672.996 342.626 674.026 342.423 675.177 342.423C676.796 342.423 678.067 342.778 678.991 343.489C679.921 344.199 680.581 345.136 680.972 346.301ZM691.703 359.341C690.169 359.341 688.848 358.979 687.74 358.254C686.632 357.53 685.779 356.532 685.183 355.261C684.586 353.989 684.288 352.537 684.288 350.903C684.288 349.241 684.593 347.775 685.204 346.504C685.822 345.225 686.681 344.227 687.782 343.51C688.89 342.786 690.183 342.423 691.66 342.423C692.811 342.423 693.848 342.636 694.771 343.062C695.694 343.489 696.451 344.085 697.04 344.852C697.63 345.619 697.995 346.514 698.137 347.537H695.623C695.431 346.791 695.005 346.131 694.345 345.555C693.691 344.973 692.811 344.682 691.703 344.682C690.723 344.682 689.863 344.937 689.125 345.449C688.393 345.953 687.821 346.667 687.409 347.59C687.005 348.506 686.802 349.582 686.802 350.818C686.802 352.082 687.001 353.183 687.399 354.121C687.804 355.058 688.372 355.786 689.103 356.305C689.842 356.823 690.708 357.082 691.703 357.082C692.356 357.082 692.949 356.969 693.482 356.741C694.015 356.514 694.466 356.188 694.835 355.761C695.204 355.335 695.467 354.824 695.623 354.227H698.137C697.995 355.193 697.644 356.063 697.083 356.837C696.529 357.604 695.794 358.215 694.877 358.67C693.968 359.117 692.91 359.341 691.703 359.341ZM706.628 359.384C705.591 359.384 704.65 359.188 703.805 358.798C702.96 358.4 702.289 357.828 701.792 357.082C701.294 356.33 701.046 355.42 701.046 354.355C701.046 353.418 701.23 352.658 701.6 352.075C701.969 351.486 702.463 351.024 703.081 350.69C703.699 350.357 704.38 350.108 705.126 349.945C705.879 349.774 706.635 349.639 707.395 349.54C708.39 349.412 709.196 349.316 709.814 349.252C710.439 349.181 710.893 349.064 711.177 348.901C711.468 348.737 711.614 348.453 711.614 348.048V347.963C711.614 346.912 711.326 346.095 710.751 345.513C710.183 344.93 709.32 344.639 708.162 344.639C706.962 344.639 706.021 344.902 705.339 345.428C704.657 345.953 704.178 346.514 703.901 347.111L701.515 346.259C701.941 345.264 702.509 344.49 703.219 343.936C703.936 343.375 704.718 342.984 705.563 342.764C706.415 342.537 707.253 342.423 708.077 342.423C708.603 342.423 709.206 342.487 709.888 342.615C710.577 342.736 711.241 342.988 711.88 343.371C712.527 343.755 713.063 344.334 713.489 345.108C713.915 345.882 714.128 346.919 714.128 348.219V359H711.614V356.784H711.486C711.316 357.139 711.032 357.519 710.634 357.924C710.236 358.329 709.707 358.673 709.047 358.957C708.386 359.241 707.58 359.384 706.628 359.384ZM707.012 357.125C708.006 357.125 708.844 356.93 709.526 356.539C710.215 356.148 710.733 355.644 711.081 355.026C711.436 354.408 711.614 353.759 711.614 353.077V350.776C711.507 350.903 711.273 351.021 710.911 351.127C710.556 351.227 710.144 351.315 709.675 351.393C709.213 351.464 708.762 351.528 708.322 351.585C707.889 351.635 707.537 351.678 707.267 351.713C706.614 351.798 706.003 351.937 705.435 352.129C704.874 352.313 704.419 352.594 704.071 352.97C703.73 353.339 703.56 353.844 703.56 354.483C703.56 355.357 703.883 356.017 704.529 356.464C705.183 356.905 706.01 357.125 707.012 357.125ZM721.231 349.156V359H718.717V342.636H721.146V345.193H721.359C721.743 344.362 722.325 343.695 723.106 343.19C723.888 342.679 724.896 342.423 726.132 342.423C727.24 342.423 728.209 342.651 729.04 343.105C729.871 343.553 730.518 344.234 730.979 345.151C731.441 346.06 731.672 347.21 731.672 348.602V359H729.157V348.773C729.157 347.487 728.824 346.486 728.156 345.768C727.488 345.044 726.572 344.682 725.407 344.682C724.605 344.682 723.888 344.856 723.256 345.204C722.631 345.552 722.137 346.06 721.775 346.727C721.412 347.395 721.231 348.205 721.231 349.156ZM752.971 352.182H755.868L758.297 355.378L758.936 356.23L762.559 361.045H759.661L757.275 357.849L756.678 357.04L752.971 352.182ZM763.453 348.091C763.453 350.392 763.038 352.381 762.207 354.057C761.376 355.733 760.236 357.026 758.787 357.935C757.338 358.844 755.684 359.298 753.823 359.298C751.962 359.298 750.307 358.844 748.858 357.935C747.409 357.026 746.27 355.733 745.439 354.057C744.608 352.381 744.192 350.392 744.192 348.091C744.192 345.79 744.608 343.801 745.439 342.125C746.27 340.449 747.409 339.156 748.858 338.247C750.307 337.338 751.962 336.884 753.823 336.884C755.684 336.884 757.338 337.338 758.787 338.247C760.236 339.156 761.376 340.449 762.207 342.125C763.038 343.801 763.453 345.79 763.453 348.091ZM760.897 348.091C760.897 346.202 760.581 344.607 759.949 343.308C759.324 342.008 758.475 341.024 757.402 340.357C756.337 339.689 755.144 339.355 753.823 339.355C752.502 339.355 751.305 339.689 750.233 340.357C749.167 341.024 748.319 342.008 747.686 343.308C747.061 344.607 746.749 346.202 746.749 348.091C746.749 349.98 747.061 351.575 747.686 352.874C748.319 354.174 749.167 355.158 750.233 355.825C751.305 356.493 752.502 356.827 753.823 356.827C755.144 356.827 756.337 356.493 757.402 355.825C758.475 355.158 759.324 354.174 759.949 352.874C760.581 351.575 760.897 349.98 760.897 348.091ZM767.896 359V337.182H775.268C776.973 337.182 778.372 337.473 779.466 338.055C780.559 338.631 781.369 339.423 781.895 340.431C782.42 341.44 782.683 342.587 782.683 343.872C782.683 345.158 782.42 346.298 781.895 347.292C781.369 348.286 780.563 349.067 779.476 349.636C778.39 350.197 777.001 350.477 775.311 350.477H769.345V348.091H775.225C776.39 348.091 777.328 347.92 778.038 347.58C778.755 347.239 779.274 346.756 779.593 346.131C779.92 345.499 780.083 344.746 780.083 343.872C780.083 342.999 779.92 342.235 779.593 341.582C779.267 340.928 778.745 340.424 778.027 340.069C777.31 339.707 776.362 339.526 775.183 339.526H770.538V359H767.896ZM778.166 349.199L783.535 359H780.467L775.183 349.199H778.166ZM801.83 359.341C800.296 359.341 798.975 358.979 797.867 358.254C796.759 357.53 795.906 356.532 795.31 355.261C794.713 353.989 794.415 352.537 794.415 350.903C794.415 349.241 794.72 347.775 795.331 346.504C795.949 345.225 796.808 344.227 797.909 343.51C799.017 342.786 800.31 342.423 801.787 342.423C802.938 342.423 803.975 342.636 804.898 343.062C805.821 343.489 806.578 344.085 807.167 344.852C807.757 345.619 808.122 346.514 808.264 347.537H805.75C805.558 346.791 805.132 346.131 804.472 345.555C803.818 344.973 802.938 344.682 801.83 344.682C800.85 344.682 799.99 344.937 799.252 345.449C798.52 345.953 797.948 346.667 797.536 347.59C797.132 348.506 796.929 349.582 796.929 350.818C796.929 352.082 797.128 353.183 797.526 354.121C797.931 355.058 798.499 355.786 799.23 356.305C799.969 356.823 800.835 357.082 801.83 357.082C802.483 357.082 803.076 356.969 803.609 356.741C804.142 356.514 804.593 356.188 804.962 355.761C805.331 355.335 805.594 354.824 805.75 354.227H808.264C808.122 355.193 807.771 356.063 807.21 356.837C806.656 357.604 805.921 358.215 805.004 358.67C804.095 359.117 803.037 359.341 801.83 359.341ZM818.588 359.341C817.11 359.341 815.814 358.989 814.699 358.286C813.591 357.583 812.725 356.599 812.1 355.335C811.482 354.071 811.173 352.594 811.173 350.903C811.173 349.199 811.482 347.711 812.1 346.44C812.725 345.168 813.591 344.181 814.699 343.478C815.814 342.775 817.11 342.423 818.588 342.423C820.065 342.423 821.357 342.775 822.465 343.478C823.58 344.181 824.447 345.168 825.065 346.44C825.69 347.711 826.002 349.199 826.002 350.903C826.002 352.594 825.69 354.071 825.065 355.335C824.447 356.599 823.58 357.583 822.465 358.286C821.357 358.989 820.065 359.341 818.588 359.341ZM818.588 357.082C819.71 357.082 820.633 356.795 821.357 356.219C822.082 355.644 822.618 354.888 822.966 353.95C823.314 353.013 823.488 351.997 823.488 350.903C823.488 349.81 823.314 348.79 822.966 347.846C822.618 346.901 822.082 346.138 821.357 345.555C820.633 344.973 819.71 344.682 818.588 344.682C817.465 344.682 816.542 344.973 815.818 345.555C815.093 346.138 814.557 346.901 814.209 347.846C813.861 348.79 813.687 349.81 813.687 350.903C813.687 351.997 813.861 353.013 814.209 353.95C814.557 354.888 815.093 355.644 815.818 356.219C816.542 356.795 817.465 357.082 818.588 357.082ZM836.019 359.341C834.656 359.341 833.452 358.996 832.408 358.308C831.364 357.612 830.547 356.631 829.957 355.367C829.368 354.096 829.073 352.594 829.073 350.861C829.073 349.142 829.368 347.651 829.957 346.386C830.547 345.122 831.367 344.146 832.418 343.457C833.469 342.768 834.684 342.423 836.062 342.423C837.127 342.423 837.969 342.601 838.587 342.956C839.212 343.304 839.688 343.702 840.014 344.149C840.348 344.589 840.607 344.952 840.792 345.236H841.005V337.182H843.519V359H841.09V356.486H840.792C840.607 356.784 840.344 357.161 840.004 357.615C839.663 358.062 839.176 358.464 838.544 358.819C837.912 359.167 837.07 359.341 836.019 359.341ZM836.36 357.082C837.369 357.082 838.221 356.82 838.917 356.294C839.613 355.761 840.142 355.026 840.504 354.089C840.866 353.144 841.048 352.054 841.048 350.818C841.048 349.597 840.87 348.528 840.515 347.612C840.16 346.688 839.634 345.971 838.938 345.46C838.242 344.941 837.383 344.682 836.36 344.682C835.295 344.682 834.407 344.955 833.697 345.502C832.994 346.042 832.464 346.777 832.109 347.707C831.761 348.631 831.587 349.668 831.587 350.818C831.587 351.983 831.765 353.041 832.12 353.993C832.482 354.937 833.015 355.69 833.718 356.251C834.428 356.805 835.309 357.082 836.36 357.082ZM855.334 359.341C853.757 359.341 852.397 358.993 851.254 358.297C850.117 357.594 849.24 356.614 848.622 355.357C848.011 354.092 847.706 352.622 847.706 350.946C847.706 349.27 848.011 347.793 848.622 346.514C849.24 345.229 850.099 344.227 851.2 343.51C852.308 342.786 853.601 342.423 855.078 342.423C855.93 342.423 856.772 342.565 857.603 342.849C858.434 343.134 859.19 343.595 859.872 344.234C860.554 344.866 861.097 345.705 861.502 346.749C861.907 347.793 862.109 349.078 862.109 350.605V351.67H849.496V349.497H859.553C859.553 348.574 859.368 347.75 858.999 347.026C858.636 346.301 858.118 345.729 857.443 345.31C856.776 344.891 855.987 344.682 855.078 344.682C854.077 344.682 853.21 344.93 852.479 345.428C851.754 345.918 851.197 346.557 850.806 347.345C850.415 348.134 850.22 348.979 850.22 349.881V351.33C850.22 352.565 850.433 353.613 850.859 354.472C851.293 355.325 851.893 355.974 852.66 356.422C853.427 356.862 854.318 357.082 855.334 357.082C855.994 357.082 856.591 356.99 857.124 356.805C857.663 356.614 858.129 356.33 858.519 355.953C858.91 355.57 859.212 355.094 859.425 354.526L861.854 355.207C861.598 356.031 861.168 356.756 860.565 357.381C859.961 357.999 859.215 358.482 858.327 358.83C857.44 359.17 856.442 359.341 855.334 359.341ZM877.525 346.301L875.266 346.94C875.124 346.564 874.915 346.198 874.638 345.843C874.368 345.481 873.999 345.183 873.53 344.948C873.061 344.714 872.461 344.597 871.729 344.597C870.728 344.597 869.893 344.827 869.226 345.289C868.565 345.744 868.235 346.322 868.235 347.026C868.235 347.651 868.462 348.144 868.917 348.506C869.371 348.869 870.082 349.17 871.048 349.412L873.477 350.009C874.94 350.364 876.03 350.907 876.747 351.638C877.464 352.363 877.823 353.297 877.823 354.44C877.823 355.378 877.553 356.216 877.013 356.955C876.481 357.693 875.735 358.276 874.776 358.702C873.817 359.128 872.702 359.341 871.431 359.341C869.762 359.341 868.381 358.979 867.287 358.254C866.193 357.53 865.501 356.472 865.21 355.08L867.596 354.483C867.823 355.364 868.253 356.024 868.885 356.464C869.524 356.905 870.359 357.125 871.388 357.125C872.56 357.125 873.491 356.876 874.18 356.379C874.876 355.875 875.224 355.271 875.224 354.568C875.224 354 875.025 353.524 874.627 353.141C874.229 352.75 873.619 352.459 872.795 352.267L870.067 351.628C868.569 351.273 867.468 350.722 866.765 349.977C866.069 349.224 865.721 348.283 865.721 347.153C865.721 346.23 865.98 345.413 866.499 344.703C867.024 343.993 867.738 343.435 868.64 343.031C869.549 342.626 870.579 342.423 871.729 342.423C873.349 342.423 874.62 342.778 875.543 343.489C876.474 344.199 877.134 345.136 877.525 346.301ZM917.744 348.474V350.818H887.744V348.474H917.744ZM935.131 359.341C933.653 359.341 932.357 358.989 931.242 358.286C930.134 357.583 929.268 356.599 928.643 355.335C928.025 354.071 927.716 352.594 927.716 350.903C927.716 349.199 928.025 347.711 928.643 346.44C929.268 345.168 930.134 344.181 931.242 343.478C932.357 342.775 933.653 342.423 935.131 342.423C936.608 342.423 937.9 342.775 939.008 343.478C940.123 344.181 940.99 345.168 941.608 346.44C942.233 347.711 942.545 349.199 942.545 350.903C942.545 352.594 942.233 354.071 941.608 355.335C940.99 356.599 940.123 357.583 939.008 358.286C937.9 358.989 936.608 359.341 935.131 359.341ZM935.131 357.082C936.253 357.082 937.176 356.795 937.9 356.219C938.625 355.644 939.161 354.888 939.509 353.95C939.857 353.013 940.031 351.997 940.031 350.903C940.031 349.81 939.857 348.79 939.509 347.846C939.161 346.901 938.625 346.138 937.9 345.555C937.176 344.973 936.253 344.682 935.131 344.682C934.008 344.682 933.085 344.973 932.361 345.555C931.636 346.138 931.1 346.901 930.752 347.846C930.404 348.79 930.23 349.81 930.23 350.903C930.23 351.997 930.404 353.013 930.752 353.95C931.1 354.888 931.636 355.644 932.361 356.219C933.085 356.795 934.008 357.082 935.131 357.082ZM948.897 349.156V359H946.383V342.636H948.812V345.193H949.025C949.409 344.362 949.991 343.695 950.772 343.19C951.554 342.679 952.562 342.423 953.798 342.423C954.906 342.423 955.875 342.651 956.706 343.105C957.537 343.553 958.184 344.234 958.645 345.151C959.107 346.06 959.338 347.21 959.338 348.602V359H956.824V348.773C956.824 347.487 956.49 346.486 955.822 345.768C955.154 345.044 954.238 344.682 953.074 344.682C952.271 344.682 951.554 344.856 950.922 345.204C950.297 345.552 949.803 346.06 949.441 346.727C949.078 347.395 948.897 348.205 948.897 349.156ZM973.307 348.474V350.818H963.762V348.474H973.307ZM983.91 359.341C982.546 359.341 981.342 358.996 980.298 358.308C979.254 357.612 978.438 356.631 977.848 355.367C977.259 354.096 976.964 352.594 976.964 350.861C976.964 349.142 977.259 347.651 977.848 346.386C978.438 345.122 979.258 344.146 980.309 343.457C981.36 342.768 982.575 342.423 983.952 342.423C985.018 342.423 985.859 342.601 986.477 342.956C987.102 343.304 987.578 343.702 987.905 344.149C988.239 344.589 988.498 344.952 988.683 345.236H988.896V337.182H991.41V359H988.981V356.486H988.683C988.498 356.784 988.235 357.161 987.894 357.615C987.553 358.062 987.067 358.464 986.435 358.819C985.803 359.167 984.961 359.341 983.91 359.341ZM984.251 357.082C985.259 357.082 986.112 356.82 986.808 356.294C987.504 355.761 988.033 355.026 988.395 354.089C988.757 353.144 988.938 352.054 988.938 350.818C988.938 349.597 988.761 348.528 988.406 347.612C988.05 346.688 987.525 345.971 986.829 345.46C986.133 344.941 985.273 344.682 984.251 344.682C983.185 344.682 982.298 344.955 981.587 345.502C980.884 346.042 980.355 346.777 980 347.707C979.652 348.631 979.478 349.668 979.478 350.818C979.478 351.983 979.656 353.041 980.011 353.993C980.373 354.937 980.906 355.69 981.609 356.251C982.319 356.805 983.2 357.082 984.251 357.082ZM1003.22 359.341C1001.65 359.341 1000.29 358.993 999.144 358.297C998.008 357.594 997.131 356.614 996.513 355.357C995.902 354.092 995.597 352.622 995.597 350.946C995.597 349.27 995.902 347.793 996.513 346.514C997.131 345.229 997.99 344.227 999.091 343.51C1000.2 342.786 1001.49 342.423 1002.97 342.423C1003.82 342.423 1004.66 342.565 1005.49 342.849C1006.32 343.134 1007.08 343.595 1007.76 344.234C1008.44 344.866 1008.99 345.705 1009.39 346.749C1009.8 347.793 1010 349.078 1010 350.605V351.67H997.386V349.497H1007.44C1007.44 348.574 1007.26 347.75 1006.89 347.026C1006.53 346.301 1006.01 345.729 1005.33 345.31C1004.67 344.891 1003.88 344.682 1002.97 344.682C1001.97 344.682 1001.1 344.93 1000.37 345.428C999.645 345.918 999.087 346.557 998.697 347.345C998.306 348.134 998.111 348.979 998.111 349.881V351.33C998.111 352.565 998.324 353.613 998.75 354.472C999.183 355.325 999.783 355.974 1000.55 356.422C1001.32 356.862 1002.21 357.082 1003.22 357.082C1003.88 357.082 1004.48 356.99 1005.01 356.805C1005.55 356.614 1006.02 356.33 1006.41 355.953C1006.8 355.57 1007.1 355.094 1007.32 354.526L1009.74 355.207C1009.49 356.031 1009.06 356.756 1008.46 357.381C1007.85 357.999 1007.11 358.482 1006.22 358.83C1005.33 359.17 1004.33 359.341 1003.22 359.341ZM1026.71 342.636L1020.66 359H1018.1L1012.05 342.636H1014.78L1019.29 355.676H1019.46L1023.98 342.636H1026.71ZM1030.03 359V342.636H1032.54V359H1030.03ZM1031.3 339.909C1030.81 339.909 1030.39 339.742 1030.04 339.408C1029.69 339.075 1029.51 338.673 1029.51 338.205C1029.51 337.736 1029.69 337.335 1030.04 337.001C1030.39 336.667 1030.81 336.5 1031.3 336.5C1031.79 336.5 1032.21 336.667 1032.56 337.001C1032.92 337.335 1033.09 337.736 1033.09 338.205C1033.09 338.673 1032.92 339.075 1032.56 339.408C1032.21 339.742 1031.79 339.909 1031.3 339.909ZM1043.79 359.341C1042.26 359.341 1040.94 358.979 1039.83 358.254C1038.72 357.53 1037.87 356.532 1037.27 355.261C1036.68 353.989 1036.38 352.537 1036.38 350.903C1036.38 349.241 1036.68 347.775 1037.29 346.504C1037.91 345.225 1038.77 344.227 1039.87 343.51C1040.98 342.786 1042.27 342.423 1043.75 342.423C1044.9 342.423 1045.94 342.636 1046.86 343.062C1047.78 343.489 1048.54 344.085 1049.13 344.852C1049.72 345.619 1050.09 346.514 1050.23 347.537H1047.71C1047.52 346.791 1047.1 346.131 1046.43 345.555C1045.78 344.973 1044.9 344.682 1043.79 344.682C1042.81 344.682 1041.95 344.937 1041.21 345.449C1040.48 345.953 1039.91 346.667 1039.5 347.59C1039.09 348.506 1038.89 349.582 1038.89 350.818C1038.89 352.082 1039.09 353.183 1039.49 354.121C1039.89 355.058 1040.46 355.786 1041.19 356.305C1041.93 356.823 1042.8 357.082 1043.79 357.082C1044.45 357.082 1045.04 356.969 1045.57 356.741C1046.1 356.514 1046.56 356.188 1046.92 355.761C1047.29 355.335 1047.56 354.824 1047.71 354.227H1050.23C1050.09 355.193 1049.73 356.063 1049.17 356.837C1048.62 357.604 1047.88 358.215 1046.97 358.67C1046.06 359.117 1045 359.341 1043.79 359.341ZM1060.76 359.341C1059.19 359.341 1057.83 358.993 1056.68 358.297C1055.55 357.594 1054.67 356.614 1054.05 355.357C1053.44 354.092 1053.14 352.622 1053.14 350.946C1053.14 349.27 1053.44 347.793 1054.05 346.514C1054.67 345.229 1055.53 344.227 1056.63 343.51C1057.74 342.786 1059.03 342.423 1060.51 342.423C1061.36 342.423 1062.2 342.565 1063.03 342.849C1063.86 343.134 1064.62 343.595 1065.3 344.234C1065.98 344.866 1066.53 345.705 1066.93 346.749C1067.34 347.793 1067.54 349.078 1067.54 350.605V351.67H1054.93V349.497H1064.98C1064.98 348.574 1064.8 347.75 1064.43 347.026C1064.07 346.301 1063.55 345.729 1062.87 345.31C1062.21 344.891 1061.42 344.682 1060.51 344.682C1059.51 344.682 1058.64 344.93 1057.91 345.428C1057.18 345.918 1056.63 346.557 1056.24 347.345C1055.85 348.134 1055.65 348.979 1055.65 349.881V351.33C1055.65 352.565 1055.86 353.613 1056.29 354.472C1056.72 355.325 1057.32 355.974 1058.09 356.422C1058.86 356.862 1059.75 357.082 1060.76 357.082C1061.42 357.082 1062.02 356.99 1062.55 356.805C1063.09 356.614 1063.56 356.33 1063.95 355.953C1064.34 355.57 1064.64 355.094 1064.85 354.526L1067.28 355.207C1067.03 356.031 1066.6 356.756 1065.99 357.381C1065.39 357.999 1064.64 358.482 1063.76 358.83C1062.87 359.17 1061.87 359.341 1060.76 359.341ZM1073.2 359.17C1072.67 359.17 1072.22 358.982 1071.84 358.606C1071.47 358.229 1071.28 357.778 1071.28 357.253C1071.28 356.727 1071.47 356.276 1071.84 355.9C1072.22 355.523 1072.67 355.335 1073.2 355.335C1073.72 355.335 1074.17 355.523 1074.55 355.9C1074.93 356.276 1075.11 356.727 1075.11 357.253C1075.11 357.601 1075.02 357.92 1074.85 358.212C1074.68 358.503 1074.45 358.737 1074.15 358.915C1073.87 359.085 1073.55 359.17 1073.2 359.17Z" fill="#B9B4A4"/>
<path d="M507.92 418C506.879 418 506.065 417.721 505.478 417.164C504.906 416.607 504.62 415.822 504.62 414.81V407.704H501.21V405.9H504.62V402.49H506.6V405.9H511.44V407.704H506.6V414.81C506.6 415.734 507.04 416.196 507.92 416.196H511.22V418H507.92ZM519.791 418.22C518.838 418.22 518.002 418.029 517.283 417.648C516.579 417.267 516.029 416.731 515.633 416.042C515.252 415.338 515.061 414.524 515.061 413.6V410.3C515.061 409.361 515.252 408.547 515.633 407.858C516.029 407.169 516.579 406.633 517.283 406.252C518.002 405.871 518.838 405.68 519.791 405.68C520.745 405.68 521.573 405.871 522.277 406.252C522.996 406.633 523.546 407.169 523.927 407.858C524.323 408.547 524.521 409.361 524.521 410.3V412.434H516.997V413.6C516.997 414.553 517.239 415.287 517.723 415.8C518.207 416.299 518.897 416.548 519.791 416.548C520.554 416.548 521.17 416.416 521.639 416.152C522.109 415.873 522.395 415.463 522.497 414.92H524.477C524.345 415.932 523.847 416.739 522.981 417.34C522.131 417.927 521.067 418.22 519.791 418.22ZM522.585 411.114V410.3C522.585 409.347 522.343 408.613 521.859 408.1C521.39 407.587 520.701 407.33 519.791 407.33C518.897 407.33 518.207 407.587 517.723 408.1C517.239 408.613 516.997 409.347 516.997 410.3V410.938H522.739L522.585 411.114ZM527.483 418L531.773 411.774L527.747 405.9H530.079L532.477 409.64C532.579 409.801 532.675 409.977 532.763 410.168C532.865 410.359 532.946 410.513 533.005 410.63C533.049 410.513 533.115 410.359 533.203 410.168C533.305 409.977 533.408 409.801 533.511 409.64L535.931 405.9H538.241L534.215 411.796L538.483 418H536.151L533.555 414.04C533.452 413.879 533.349 413.695 533.247 413.49C533.159 413.27 533.078 413.094 533.005 412.962C532.946 413.094 532.858 413.27 532.741 413.49C532.638 413.695 532.528 413.879 532.411 414.04L529.793 418H527.483ZM547.494 418C546.453 418 545.639 417.721 545.052 417.164C544.48 416.607 544.194 415.822 544.194 414.81V407.704H540.784V405.9H544.194V402.49H546.174V405.9H551.014V407.704H546.174V414.81C546.174 415.734 546.614 416.196 547.494 416.196H550.794V418H547.494ZM572.557 412.28C572 412.28 571.552 412.119 571.215 411.796C570.892 411.473 570.731 411.041 570.731 410.498C570.731 409.926 570.892 409.471 571.215 409.134C571.552 408.797 572 408.628 572.557 408.628C573.114 408.628 573.554 408.797 573.877 409.134C574.214 409.471 574.383 409.926 574.383 410.498C574.383 411.041 574.214 411.473 573.877 411.796C573.554 412.119 573.114 412.28 572.557 412.28ZM598.918 418.22C597.525 418.22 596.41 417.809 595.574 416.988C594.738 416.152 594.32 415.023 594.32 413.6V405.9H596.3V413.6C596.3 414.509 596.535 415.221 597.004 415.734C597.473 416.233 598.111 416.482 598.918 416.482C599.739 416.482 600.385 416.233 600.854 415.734C601.338 415.221 601.58 414.509 601.58 413.6V405.9H603.56V413.6C603.56 415.023 603.135 416.152 602.284 416.988C601.433 417.809 600.311 418.22 598.918 418.22ZM607.973 418V405.9H609.909V408.21H610.371L609.733 409.64C609.733 408.335 610.012 407.352 610.569 406.692C611.141 406.017 611.985 405.68 613.099 405.68C614.375 405.68 615.387 406.083 616.135 406.89C616.898 407.682 617.279 408.76 617.279 410.124V410.85H615.299V410.3C615.299 409.347 615.065 408.621 614.595 408.122C614.141 407.609 613.488 407.352 612.637 407.352C611.801 407.352 611.141 407.609 610.657 408.122C610.188 408.635 609.953 409.361 609.953 410.3V418H607.973ZM626.973 418C626.269 418 625.653 417.861 625.125 417.582C624.597 417.303 624.186 416.907 623.893 416.394C623.599 415.881 623.453 415.279 623.453 414.59V403.744H619.383V401.94H625.433V414.59C625.433 415.089 625.572 415.485 625.851 415.778C626.129 416.057 626.503 416.196 626.973 416.196H630.823V418H626.973ZM638.14 418.176C637.319 418.176 636.6 418.051 635.984 417.802C635.383 417.538 634.899 417.171 634.532 416.702C634.18 416.233 633.967 415.675 633.894 415.03H635.874C635.962 415.455 636.197 415.793 636.578 416.042C636.974 416.291 637.495 416.416 638.14 416.416H639.064C639.841 416.416 640.421 416.262 640.802 415.954C641.183 415.631 641.374 415.206 641.374 414.678C641.374 414.165 641.198 413.761 640.846 413.468C640.509 413.16 640.003 412.955 639.328 412.852L637.7 412.588C636.512 412.383 635.625 412.016 635.038 411.488C634.466 410.945 634.18 410.161 634.18 409.134C634.18 408.049 634.525 407.213 635.214 406.626C635.903 406.025 636.937 405.724 638.316 405.724H639.152C640.311 405.724 641.242 405.995 641.946 406.538C642.65 407.081 643.075 407.814 643.222 408.738H641.242C641.154 408.357 640.934 408.056 640.582 407.836C640.23 407.601 639.753 407.484 639.152 407.484H638.316C637.568 407.484 637.018 407.623 636.666 407.902C636.329 408.181 636.16 408.599 636.16 409.156C636.16 409.655 636.307 410.021 636.6 410.256C636.893 410.491 637.355 410.659 637.986 410.762L639.614 411.026C640.919 411.231 641.865 411.613 642.452 412.17C643.053 412.727 643.354 413.534 643.354 414.59C643.354 415.705 642.995 416.585 642.276 417.23C641.572 417.861 640.501 418.176 639.064 418.176H638.14ZM664.897 412.28C664.34 412.28 663.892 412.119 663.555 411.796C663.232 411.473 663.071 411.041 663.071 410.498C663.071 409.926 663.232 409.471 663.555 409.134C663.892 408.797 664.34 408.628 664.897 408.628C665.454 408.628 665.894 408.797 666.217 409.134C666.554 409.471 666.723 409.926 666.723 410.498C666.723 411.041 666.554 411.473 666.217 411.796C665.894 412.119 665.454 412.28 664.897 412.28ZM687.386 418L685.45 405.9H687.21L688.42 414.48C688.464 414.803 688.508 415.155 688.552 415.536C688.61 415.903 688.654 416.211 688.684 416.46C688.713 416.211 688.757 415.903 688.816 415.536C688.889 415.155 688.948 414.803 688.992 414.48L690.334 405.9H692.226L693.568 414.48C693.612 414.803 693.663 415.155 693.722 415.536C693.795 415.903 693.846 416.211 693.876 416.46C693.905 416.211 693.949 415.903 694.008 415.536C694.081 415.155 694.14 414.803 694.184 414.48L695.438 405.9H697.11L695.086 418H692.908L691.61 409.64C691.551 409.229 691.485 408.819 691.412 408.408C691.338 407.997 691.287 407.675 691.258 407.44C691.228 407.675 691.184 407.997 691.126 408.408C691.067 408.819 691.001 409.229 690.928 409.64L689.564 418H687.386ZM699.741 418V416.196H704.031V407.704H700.291V405.9H706.011V416.196H710.081V418H699.741ZM704.801 403.722C704.317 403.722 703.936 403.597 703.657 403.348C703.378 403.099 703.239 402.761 703.239 402.336C703.239 401.896 703.378 401.551 703.657 401.302C703.936 401.038 704.317 400.906 704.801 400.906C705.285 400.906 705.666 401.038 705.945 401.302C706.224 401.551 706.363 401.896 706.363 402.336C706.363 402.761 706.224 403.099 705.945 403.348C705.666 403.597 705.285 403.722 704.801 403.722ZM715.903 418V408.914H712.383V407.11H715.903V405.02C715.903 404.067 716.203 403.319 716.805 402.776C717.406 402.219 718.235 401.94 719.291 401.94H722.833V403.744H719.291C718.836 403.744 718.484 403.854 718.235 404.074C718 404.279 717.883 404.595 717.883 405.02V407.11H722.833V408.914H717.883V418H715.903ZM726.124 418V416.196H730.414V407.704H726.674V405.9H732.394V416.196H736.464V418H726.124ZM731.184 403.722C730.7 403.722 730.319 403.597 730.04 403.348C729.761 403.099 729.622 402.761 729.622 402.336C729.622 401.896 729.761 401.551 730.04 401.302C730.319 401.038 730.7 400.906 731.184 400.906C731.668 400.906 732.049 401.038 732.328 401.302C732.607 401.551 732.746 401.896 732.746 402.336C732.746 402.761 732.607 403.099 732.328 403.348C732.049 403.597 731.668 403.722 731.184 403.722ZM757.237 412.28C756.679 412.28 756.232 412.119 755.895 411.796C755.572 411.473 755.411 411.041 755.411 410.498C755.411 409.926 755.572 409.471 755.895 409.134C756.232 408.797 756.679 408.628 757.237 408.628C757.794 408.628 758.234 408.797 758.557 409.134C758.894 409.471 759.063 409.926 759.063 410.498C759.063 411.041 758.894 411.473 758.557 411.796C758.234 412.119 757.794 412.28 757.237 412.28ZM782.278 418L778.23 405.9H780.254L782.938 414.04C783.099 414.524 783.246 414.993 783.378 415.448C783.51 415.888 783.605 416.233 783.664 416.482C783.737 416.233 783.84 415.888 783.972 415.448C784.104 414.993 784.243 414.524 784.39 414.04L787.008 405.9H789.01L784.962 418H782.278ZM796.899 418.22C795.931 418.22 795.088 418.037 794.369 417.67C793.665 417.303 793.115 416.775 792.719 416.086C792.338 415.382 792.147 414.553 792.147 413.6V406.34C792.147 405.372 792.338 404.543 792.719 403.854C793.115 403.165 793.665 402.637 794.369 402.27C795.088 401.903 795.931 401.72 796.899 401.72C797.867 401.72 798.703 401.911 799.407 402.292C800.111 402.659 800.654 403.187 801.035 403.876C801.416 404.565 801.607 405.387 801.607 406.34H799.627C799.627 405.431 799.385 404.734 798.901 404.25C798.432 403.751 797.764 403.502 796.899 403.502C796.034 403.502 795.352 403.744 794.853 404.228C794.369 404.712 794.127 405.409 794.127 406.318V413.6C794.127 414.509 794.369 415.213 794.853 415.712C795.352 416.196 796.034 416.438 796.899 416.438C797.764 416.438 798.432 416.196 798.901 415.712C799.385 415.213 799.627 414.509 799.627 413.6H801.607C801.607 414.539 801.416 415.36 801.035 416.064C800.654 416.753 800.111 417.289 799.407 417.67C798.703 418.037 797.867 418.22 796.899 418.22ZM808.946 418.22C807.67 418.22 806.666 417.897 805.932 417.252C805.199 416.592 804.832 415.705 804.832 414.59C804.832 413.461 805.199 412.573 805.932 411.928C806.666 411.283 807.656 410.96 808.902 410.96H812.642V409.75C812.642 409.002 812.415 408.43 811.96 408.034C811.52 407.623 810.89 407.418 810.068 407.418C809.35 407.418 808.748 407.572 808.264 407.88C807.78 408.173 807.502 408.577 807.428 409.09H805.448C805.58 408.049 806.072 407.22 806.922 406.604C807.773 405.988 808.836 405.68 810.112 405.68C811.506 405.68 812.606 406.039 813.412 406.758C814.219 407.477 814.622 408.452 814.622 409.684V418H812.686V415.69H812.356L812.686 415.36C812.686 416.24 812.342 416.937 811.652 417.45C810.978 417.963 810.076 418.22 808.946 418.22ZM809.43 416.658C810.369 416.658 811.139 416.423 811.74 415.954C812.342 415.485 812.642 414.883 812.642 414.15V412.434H808.946C808.286 412.434 807.766 412.617 807.384 412.984C807.003 413.351 806.812 413.849 806.812 414.48C806.812 415.155 807.04 415.69 807.494 416.086C807.964 416.467 808.609 416.658 809.43 416.658ZM819.036 418V405.9H820.972V408.21H821.434L820.796 409.64C820.796 408.335 821.074 407.352 821.632 406.692C822.204 406.017 823.047 405.68 824.162 405.68C825.438 405.68 826.45 406.083 827.198 406.89C827.96 407.682 828.342 408.76 828.342 410.124V410.85H826.362V410.3C826.362 409.347 826.127 408.621 825.658 408.122C825.203 407.609 824.55 407.352 823.7 407.352C822.864 407.352 822.204 407.609 821.72 408.122C821.25 408.635 821.016 409.361 821.016 410.3V418H819.036ZM835.681 418.22C834.478 418.22 833.503 417.817 832.755 417.01C832.022 416.203 831.655 415.111 831.655 413.732V410.19C831.655 408.797 832.022 407.697 832.755 406.89C833.488 406.083 834.464 405.68 835.681 405.68C836.678 405.68 837.478 405.951 838.079 406.494C838.68 407.037 838.981 407.763 838.981 408.672L838.585 408.21H839.025L838.981 405.46V401.94H840.961V418H838.981V415.69H838.585L838.981 415.228C838.981 416.152 838.68 416.885 838.079 417.428C837.478 417.956 836.678 418.22 835.681 418.22ZM836.341 416.504C837.162 416.504 837.808 416.247 838.277 415.734C838.746 415.221 838.981 414.509 838.981 413.6V410.3C838.981 409.391 838.746 408.679 838.277 408.166C837.808 407.653 837.162 407.396 836.341 407.396C835.505 407.396 834.845 407.645 834.361 408.144C833.877 408.643 833.635 409.361 833.635 410.3V413.6C833.635 414.539 833.877 415.257 834.361 415.756C834.845 416.255 835.505 416.504 836.341 416.504ZM849.203 418.176C848.381 418.176 847.663 418.051 847.047 417.802C846.445 417.538 845.961 417.171 845.595 416.702C845.243 416.233 845.03 415.675 844.957 415.03H846.937C847.025 415.455 847.259 415.793 847.641 416.042C848.037 416.291 848.557 416.416 849.203 416.416H850.127C850.904 416.416 851.483 416.262 851.865 415.954C852.246 415.631 852.437 415.206 852.437 414.678C852.437 414.165 852.261 413.761 851.909 413.468C851.571 413.16 851.065 412.955 850.391 412.852L848.763 412.588C847.575 412.383 846.687 412.016 846.101 411.488C845.529 410.945 845.243 410.161 845.243 409.134C845.243 408.049 845.587 407.213 846.277 406.626C846.966 406.025 848 405.724 849.379 405.724H850.215C851.373 405.724 852.305 405.995 853.009 406.538C853.713 407.081 854.138 407.814 854.285 408.738H852.305C852.217 408.357 851.997 408.056 851.645 407.836C851.293 407.601 850.816 407.484 850.215 407.484H849.379C848.631 407.484 848.081 407.623 847.729 407.902C847.391 408.181 847.223 408.599 847.223 409.156C847.223 409.655 847.369 410.021 847.663 410.256C847.956 410.491 848.418 410.659 849.049 410.762L850.677 411.026C851.982 411.231 852.928 411.613 853.515 412.17C854.116 412.727 854.417 413.534 854.417 414.59C854.417 415.705 854.057 416.585 853.339 417.23C852.635 417.861 851.564 418.176 850.127 418.176H849.203ZM875.959 412.28C875.402 412.28 874.955 412.119 874.617 411.796C874.295 411.473 874.133 411.041 874.133 410.498C874.133 409.926 874.295 409.471 874.617 409.134C874.955 408.797 875.402 408.628 875.959 408.628C876.517 408.628 876.957 408.797 877.279 409.134C877.617 409.471 877.785 409.926 877.785 410.498C877.785 411.041 877.617 411.473 877.279 411.796C876.957 412.119 876.517 412.28 875.959 412.28ZM902.43 418.22C901.462 418.22 900.612 418.037 899.878 417.67C899.16 417.303 898.602 416.775 898.206 416.086C897.81 415.382 897.612 414.553 897.612 413.6V410.3C897.612 409.332 897.81 408.503 898.206 407.814C898.602 407.125 899.16 406.597 899.878 406.23C900.612 405.863 901.462 405.68 902.43 405.68C903.824 405.68 904.946 406.054 905.796 406.802C906.647 407.55 907.094 408.569 907.138 409.86H905.158C905.114 409.083 904.85 408.489 904.366 408.078C903.897 407.653 903.252 407.44 902.43 407.44C901.565 407.44 900.876 407.689 900.362 408.188C899.849 408.672 899.592 409.369 899.592 410.278V413.6C899.592 414.509 899.849 415.213 900.362 415.712C900.876 416.211 901.565 416.46 902.43 416.46C903.252 416.46 903.897 416.247 904.366 415.822C904.85 415.397 905.114 414.803 905.158 414.04H907.138C907.094 415.331 906.647 416.35 905.796 417.098C904.946 417.846 903.824 418.22 902.43 418.22ZM914.478 418.22C913.202 418.22 912.197 417.897 911.464 417.252C910.73 416.592 910.364 415.705 910.364 414.59C910.364 413.461 910.73 412.573 911.464 411.928C912.197 411.283 913.187 410.96 914.434 410.96H918.174V409.75C918.174 409.002 917.946 408.43 917.492 408.034C917.052 407.623 916.421 407.418 915.6 407.418C914.881 407.418 914.28 407.572 913.796 407.88C913.312 408.173 913.033 408.577 912.96 409.09H910.98C911.112 408.049 911.603 407.22 912.454 406.604C913.304 405.988 914.368 405.68 915.644 405.68C917.037 405.68 918.137 406.039 918.944 406.758C919.75 407.477 920.154 408.452 920.154 409.684V418H918.218V415.69H917.888L918.218 415.36C918.218 416.24 917.873 416.937 917.184 417.45C916.509 417.963 915.607 418.22 914.478 418.22ZM914.962 416.658C915.9 416.658 916.67 416.423 917.272 415.954C917.873 415.485 918.174 414.883 918.174 414.15V412.434H914.478C913.818 412.434 913.297 412.617 912.916 412.984C912.534 413.351 912.344 413.849 912.344 414.48C912.344 415.155 912.571 415.69 913.026 416.086C913.495 416.467 914.14 416.658 914.962 416.658ZM930.375 418C929.671 418 929.055 417.861 928.527 417.582C927.999 417.303 927.588 416.907 927.295 416.394C927.002 415.881 926.855 415.279 926.855 414.59V403.744H922.785V401.94H928.835V414.59C928.835 415.089 928.974 415.485 929.253 415.778C929.532 416.057 929.906 416.196 930.375 416.196H934.225V418H930.375ZM941.916 418.22C940.963 418.22 940.127 418.029 939.408 417.648C938.704 417.267 938.154 416.731 937.758 416.042C937.377 415.338 937.186 414.524 937.186 413.6V410.3C937.186 409.361 937.377 408.547 937.758 407.858C938.154 407.169 938.704 406.633 939.408 406.252C940.127 405.871 940.963 405.68 941.916 405.68C942.87 405.68 943.698 405.871 944.402 406.252C945.121 406.633 945.671 407.169 946.052 407.858C946.448 408.547 946.646 409.361 946.646 410.3V412.434H939.122V413.6C939.122 414.553 939.364 415.287 939.848 415.8C940.332 416.299 941.022 416.548 941.916 416.548C942.679 416.548 943.295 416.416 943.764 416.152C944.234 415.873 944.52 415.463 944.622 414.92H946.602C946.47 415.932 945.972 416.739 945.106 417.34C944.256 417.927 943.192 418.22 941.916 418.22ZM944.71 411.114V410.3C944.71 409.347 944.468 408.613 943.984 408.1C943.515 407.587 942.826 407.33 941.916 407.33C941.022 407.33 940.332 407.587 939.848 408.1C939.364 408.613 939.122 409.347 939.122 410.3V410.938H944.864L944.71 411.114ZM950.532 418V405.9H952.512V408.21H952.93L952.512 408.672C952.512 407.719 952.798 406.985 953.37 406.472C953.942 405.944 954.734 405.68 955.746 405.68C956.963 405.68 957.931 406.054 958.65 406.802C959.368 407.55 959.728 408.569 959.728 409.86V418H957.748V410.08C957.748 409.215 957.513 408.555 957.044 408.1C956.589 407.631 955.966 407.396 955.174 407.396C954.352 407.396 953.7 407.645 953.216 408.144C952.746 408.643 952.512 409.361 952.512 410.3V418H950.532ZM967.595 418.22C966.393 418.22 965.417 417.817 964.669 417.01C963.936 416.203 963.569 415.111 963.569 413.732V410.19C963.569 408.797 963.936 407.697 964.669 406.89C965.403 406.083 966.378 405.68 967.595 405.68C968.593 405.68 969.392 405.951 969.993 406.494C970.595 407.037 970.895 407.763 970.895 408.672L970.499 408.21H970.939L970.895 405.46V401.94H972.875V418H970.895V415.69H970.499L970.895 415.228C970.895 416.152 970.595 416.885 969.993 417.428C969.392 417.956 968.593 418.22 967.595 418.22ZM968.255 416.504C969.077 416.504 969.722 416.247 970.191 415.734C970.661 415.221 970.895 414.509 970.895 413.6V410.3C970.895 409.391 970.661 408.679 970.191 408.166C969.722 407.653 969.077 407.396 968.255 407.396C967.419 407.396 966.759 407.645 966.275 408.144C965.791 408.643 965.549 409.361 965.549 410.3V413.6C965.549 414.539 965.791 415.257 966.275 415.756C966.759 416.255 967.419 416.504 968.255 416.504ZM980.435 418.22C979.159 418.22 978.154 417.897 977.421 417.252C976.687 416.592 976.321 415.705 976.321 414.59C976.321 413.461 976.687 412.573 977.421 411.928C978.154 411.283 979.144 410.96 980.391 410.96H984.131V409.75C984.131 409.002 983.903 408.43 983.449 408.034C983.009 407.623 982.378 407.418 981.557 407.418C980.838 407.418 980.237 407.572 979.753 407.88C979.269 408.173 978.99 408.577 978.917 409.09H976.937C977.069 408.049 977.56 407.22 978.411 406.604C979.261 405.988 980.325 405.68 981.601 405.68C982.994 405.68 984.094 406.039 984.901 406.758C985.707 407.477 986.111 408.452 986.111 409.684V418H984.175V415.69H983.845L984.175 415.36C984.175 416.24 983.83 416.937 983.141 417.45C982.466 417.963 981.564 418.22 980.435 418.22ZM980.919 416.658C981.857 416.658 982.627 416.423 983.229 415.954C983.83 415.485 984.131 414.883 984.131 414.15V412.434H980.435C979.775 412.434 979.254 412.617 978.873 412.984C978.491 413.351 978.301 413.849 978.301 414.48C978.301 415.155 978.528 415.69 978.983 416.086C979.452 416.467 980.097 416.658 980.919 416.658ZM990.524 418V405.9H992.46V408.21H992.922L992.284 409.64C992.284 408.335 992.563 407.352 993.12 406.692C993.692 406.017 994.535 405.68 995.65 405.68C996.926 405.68 997.938 406.083 998.686 406.89C999.449 407.682 999.83 408.76 999.83 410.124V410.85H997.85V410.3C997.85 409.347 997.615 408.621 997.146 408.122C996.691 407.609 996.039 407.352 995.188 407.352C994.352 407.352 993.692 407.609 993.208 408.122C992.739 408.635 992.504 409.361 992.504 410.3V418H990.524ZM1021.06 412.28C1020.51 412.28 1020.06 412.119 1019.72 411.796C1019.4 411.473 1019.24 411.041 1019.24 410.498C1019.24 409.926 1019.4 409.471 1019.72 409.134C1020.06 408.797 1020.51 408.628 1021.06 408.628C1021.62 408.628 1022.06 408.797 1022.38 409.134C1022.72 409.471 1022.89 409.926 1022.89 410.498C1022.89 411.041 1022.72 411.473 1022.38 411.796C1022.06 412.119 1021.62 412.28 1021.06 412.28ZM1047.07 418.176C1046.25 418.176 1045.53 418.051 1044.92 417.802C1044.32 417.538 1043.83 417.171 1043.47 416.702C1043.11 416.233 1042.9 415.675 1042.83 415.03H1044.81C1044.9 415.455 1045.13 415.793 1045.51 416.042C1045.91 416.291 1046.43 416.416 1047.07 416.416H1048C1048.77 416.416 1049.35 416.262 1049.74 415.954C1050.12 415.631 1050.31 415.206 1050.31 414.678C1050.31 414.165 1050.13 413.761 1049.78 413.468C1049.44 413.16 1048.94 412.955 1048.26 412.852L1046.63 412.588C1045.45 412.383 1044.56 412.016 1043.97 411.488C1043.4 410.945 1043.11 410.161 1043.11 409.134C1043.11 408.049 1043.46 407.213 1044.15 406.626C1044.84 406.025 1045.87 405.724 1047.25 405.724H1048.09C1049.24 405.724 1050.18 405.995 1050.88 406.538C1051.58 407.081 1052.01 407.814 1052.16 408.738H1050.18C1050.09 408.357 1049.87 408.056 1049.52 407.836C1049.16 407.601 1048.69 407.484 1048.09 407.484H1047.25C1046.5 407.484 1045.95 407.623 1045.6 407.902C1045.26 408.181 1045.09 408.599 1045.09 409.156C1045.09 409.655 1045.24 410.021 1045.53 410.256C1045.83 410.491 1046.29 410.659 1046.92 410.762L1048.55 411.026C1049.85 411.231 1050.8 411.613 1051.39 412.17C1051.99 412.727 1052.29 413.534 1052.29 414.59C1052.29 415.705 1051.93 416.585 1051.21 417.23C1050.51 417.861 1049.43 418.176 1048 418.176H1047.07ZM1055.49 418V405.9H1057.23V407.352H1057.63L1057.32 407.88C1057.32 407.205 1057.49 406.67 1057.85 406.274C1058.21 405.878 1058.7 405.68 1059.32 405.68C1059.99 405.68 1060.51 405.929 1060.88 406.428C1061.25 406.927 1061.43 407.631 1061.43 408.54L1060.84 407.352H1061.76L1061.34 407.88C1061.34 407.205 1061.53 406.67 1061.89 406.274C1062.27 405.878 1062.77 405.68 1063.39 405.68C1064.15 405.68 1064.74 405.966 1065.15 406.538C1065.57 407.11 1065.79 407.865 1065.79 408.804V418H1063.96V408.782C1063.96 408.283 1063.85 407.895 1063.63 407.616C1063.43 407.337 1063.12 407.198 1062.71 407.198C1062.31 407.198 1062 407.337 1061.76 407.616C1061.54 407.88 1061.43 408.261 1061.43 408.76V418H1059.85V408.782C1059.85 408.269 1059.73 407.88 1059.5 407.616C1059.28 407.337 1058.96 407.198 1058.55 407.198C1058.14 407.198 1057.83 407.337 1057.63 407.616C1057.42 407.88 1057.32 408.261 1057.32 408.76V418H1055.49ZM1073.46 418.176C1072.64 418.176 1071.92 418.051 1071.3 417.802C1070.7 417.538 1070.22 417.171 1069.85 416.702C1069.5 416.233 1069.28 415.675 1069.21 415.03H1071.19C1071.28 415.455 1071.51 415.793 1071.89 416.042C1072.29 416.291 1072.81 416.416 1073.46 416.416H1074.38C1075.16 416.416 1075.74 416.262 1076.12 415.954C1076.5 415.631 1076.69 415.206 1076.69 414.678C1076.69 414.165 1076.51 413.761 1076.16 413.468C1075.83 413.16 1075.32 412.955 1074.64 412.852L1073.02 412.588C1071.83 412.383 1070.94 412.016 1070.35 411.488C1069.78 410.945 1069.5 410.161 1069.5 409.134C1069.5 408.049 1069.84 407.213 1070.53 406.626C1071.22 406.025 1072.25 405.724 1073.63 405.724H1074.47C1075.63 405.724 1076.56 405.995 1077.26 406.538C1077.97 407.081 1078.39 407.814 1078.54 408.738H1076.56C1076.47 408.357 1076.25 408.056 1075.9 407.836C1075.55 407.601 1075.07 407.484 1074.47 407.484H1073.63C1072.88 407.484 1072.33 407.623 1071.98 407.902C1071.65 408.181 1071.48 408.599 1071.48 409.156C1071.48 409.655 1071.62 410.021 1071.92 410.256C1072.21 410.491 1072.67 410.659 1073.3 410.762L1074.93 411.026C1076.24 411.231 1077.18 411.613 1077.77 412.17C1078.37 412.727 1078.67 413.534 1078.67 414.59C1078.67 415.705 1078.31 416.585 1077.59 417.23C1076.89 417.861 1075.82 418.176 1074.38 418.176H1073.46ZM1100.21 412.28C1099.66 412.28 1099.21 412.119 1098.87 411.796C1098.55 411.473 1098.39 411.041 1098.39 410.498C1098.39 409.926 1098.55 409.471 1098.87 409.134C1099.21 408.797 1099.66 408.628 1100.21 408.628C1100.77 408.628 1101.21 408.797 1101.53 409.134C1101.87 409.471 1102.04 409.926 1102.04 410.498C1102.04 411.041 1101.87 411.473 1101.53 411.796C1101.21 412.119 1100.77 412.28 1100.21 412.28ZM1123.54 421.96V420.156H1127.39C1128 420.156 1128.45 420.017 1128.73 419.738C1129.02 419.459 1129.17 419.027 1129.17 418.44V416.9L1129.21 414.7H1128.82L1129.19 414.37C1129.19 415.25 1128.9 415.947 1128.31 416.46C1127.73 416.973 1126.94 417.23 1125.96 417.23C1124.71 417.23 1123.73 416.827 1123.01 416.02C1122.29 415.199 1121.93 414.099 1121.93 412.72V410.168C1121.93 408.789 1122.29 407.697 1123.01 406.89C1123.73 406.083 1124.71 405.68 1125.96 405.68C1126.94 405.68 1127.73 405.937 1128.31 406.45C1128.9 406.963 1129.19 407.66 1129.19 408.54L1128.82 408.21H1129.19V405.9H1131.15V418.44C1131.15 419.525 1130.81 420.383 1130.14 421.014C1129.48 421.645 1128.55 421.96 1127.37 421.96H1123.54ZM1126.55 415.514C1127.37 415.514 1128.02 415.257 1128.49 414.744C1128.96 414.231 1129.19 413.519 1129.19 412.61V410.3C1129.19 409.391 1128.96 408.679 1128.49 408.166C1128.02 407.653 1127.37 407.396 1126.55 407.396C1125.72 407.396 1125.06 407.645 1124.59 408.144C1124.14 408.643 1123.91 409.361 1123.91 410.3V412.61C1123.91 413.549 1124.14 414.267 1124.59 414.766C1125.06 415.265 1125.72 415.514 1126.55 415.514ZM1139.79 418.22C1138.83 418.22 1138 418.029 1137.28 417.648C1136.58 417.267 1136.03 416.731 1135.63 416.042C1135.25 415.338 1135.06 414.524 1135.06 413.6V410.3C1135.06 409.361 1135.25 408.547 1135.63 407.858C1136.03 407.169 1136.58 406.633 1137.28 406.252C1138 405.871 1138.83 405.68 1139.79 405.68C1140.74 405.68 1141.57 405.871 1142.27 406.252C1142.99 406.633 1143.54 407.169 1143.92 407.858C1144.32 408.547 1144.52 409.361 1144.52 410.3V412.434H1136.99V413.6C1136.99 414.553 1137.24 415.287 1137.72 415.8C1138.2 416.299 1138.89 416.548 1139.79 416.548C1140.55 416.548 1141.17 416.416 1141.64 416.152C1142.1 415.873 1142.39 415.463 1142.49 414.92H1144.47C1144.34 415.932 1143.84 416.739 1142.98 417.34C1142.13 417.927 1141.06 418.22 1139.79 418.22ZM1142.58 411.114V410.3C1142.58 409.347 1142.34 408.613 1141.86 408.1C1141.39 407.587 1140.7 407.33 1139.79 407.33C1138.89 407.33 1138.2 407.587 1137.72 408.1C1137.24 408.613 1136.99 409.347 1136.99 410.3V410.938H1142.74L1142.58 411.114ZM1152.98 418.176C1152.01 418.176 1151.17 417.993 1150.47 417.626C1149.77 417.259 1149.22 416.731 1148.82 416.042C1148.44 415.338 1148.25 414.509 1148.25 413.556V410.344C1148.25 409.376 1148.44 408.547 1148.82 407.858C1149.22 407.169 1149.77 406.641 1150.47 406.274C1151.17 405.907 1152.01 405.724 1152.98 405.724C1153.95 405.724 1154.78 405.907 1155.49 406.274C1156.19 406.641 1156.73 407.169 1157.11 407.858C1157.51 408.547 1157.71 409.369 1157.71 410.322V413.556C1157.71 414.509 1157.51 415.338 1157.11 416.042C1156.73 416.731 1156.19 417.259 1155.49 417.626C1154.78 417.993 1153.95 418.176 1152.98 418.176ZM1152.98 416.416C1153.84 416.416 1154.52 416.174 1155 415.69C1155.49 415.206 1155.73 414.495 1155.73 413.556V410.344C1155.73 409.405 1155.49 408.694 1155 408.21C1154.52 407.726 1153.84 407.484 1152.98 407.484C1152.13 407.484 1151.45 407.726 1150.95 408.21C1150.47 408.694 1150.23 409.405 1150.23 410.344V413.556C1150.23 414.495 1150.47 415.206 1150.95 415.69C1151.45 416.174 1152.13 416.416 1152.98 416.416Z" fill="#6B675C"/>
<path d="M578.5 455H501.5C500.672 455 500 455.672 500 456.5C500 457.328 500.672 458 501.5 458H578.5C579.328 458 580 457.328 580 456.5C580 455.672 579.328 455 578.5 455Z" fill="#FBBF24"/>
<path d="M830.246 580V570.1H831.866V571.99H832.208L831.866 572.368C831.866 571.588 832.1 570.988 832.568 570.568C833.036 570.136 833.684 569.92 834.512 569.92C835.508 569.92 836.3 570.226 836.888 570.838C837.476 571.45 837.77 572.284 837.77 573.34V580H836.15V573.52C836.15 572.812 835.958 572.272 835.574 571.9C835.202 571.516 834.692 571.324 834.044 571.324C833.372 571.324 832.838 571.528 832.442 571.936C832.058 572.344 831.866 572.932 831.866 573.7V580H830.246ZM844.783 580.144C843.991 580.144 843.307 579.994 842.731 579.694C842.155 579.394 841.705 578.962 841.381 578.398C841.069 577.822 840.913 577.144 840.913 576.364V573.736C840.913 572.944 841.069 572.266 841.381 571.702C841.705 571.138 842.155 570.706 842.731 570.406C843.307 570.106 843.991 569.956 844.783 569.956C845.575 569.956 846.259 570.106 846.835 570.406C847.411 570.706 847.855 571.138 848.167 571.702C848.491 572.266 848.653 572.938 848.653 573.718V576.364C848.653 577.144 848.491 577.822 848.167 578.398C847.855 578.962 847.411 579.394 846.835 579.694C846.259 579.994 845.575 580.144 844.783 580.144ZM844.783 578.704C845.491 578.704 846.043 578.506 846.439 578.11C846.835 577.714 847.033 577.132 847.033 576.364V573.736C847.033 572.968 846.835 572.386 846.439 571.99C846.043 571.594 845.491 571.396 844.783 571.396C844.087 571.396 843.535 571.594 843.127 571.99C842.731 572.386 842.533 572.968 842.533 573.736V576.364C842.533 577.132 842.731 577.714 843.127 578.11C843.535 578.506 844.087 578.704 844.783 578.704ZM856.656 580C855.804 580 855.138 579.772 854.658 579.316C854.19 578.86 853.956 578.218 853.956 577.39V571.576H851.166V570.1H853.956V567.31H855.576V570.1H859.536V571.576H855.576V577.39C855.576 578.146 855.936 578.524 856.656 578.524H859.356V580H856.656ZM862.625 580V566.86H864.245V570.1V571.99H864.587L864.245 572.368C864.245 571.588 864.479 570.988 864.947 570.568C865.415 570.136 866.063 569.92 866.891 569.92C867.887 569.92 868.679 570.226 869.267 570.838C869.855 571.45 870.149 572.284 870.149 573.34V580H868.529V573.52C868.529 572.812 868.337 572.266 867.953 571.882C867.581 571.486 867.071 571.288 866.423 571.288C865.751 571.288 865.217 571.498 864.821 571.918C864.437 572.338 864.245 572.932 864.245 573.7V580H862.625ZM873.292 580V578.524H876.802V571.576H873.742V570.1H878.422V578.524H881.752V580H873.292ZM877.432 568.318C877.036 568.318 876.724 568.216 876.496 568.012C876.268 567.808 876.154 567.532 876.154 567.184C876.154 566.824 876.268 566.542 876.496 566.338C876.724 566.122 877.036 566.014 877.432 566.014C877.828 566.014 878.14 566.122 878.368 566.338C878.596 566.542 878.71 566.824 878.71 567.184C878.71 567.532 878.596 567.808 878.368 568.012C878.14 568.216 877.828 568.318 877.432 568.318ZM884.211 580V570.1H885.831V571.99H886.173L885.831 572.368C885.831 571.588 886.065 570.988 886.533 570.568C887.001 570.136 887.649 569.92 888.477 569.92C889.473 569.92 890.265 570.226 890.853 570.838C891.441 571.45 891.735 572.284 891.735 573.34V580H890.115V573.52C890.115 572.812 889.923 572.272 889.539 571.9C889.167 571.516 888.657 571.324 888.009 571.324C887.337 571.324 886.803 571.528 886.407 571.936C886.023 572.344 885.831 572.932 885.831 573.7V580H884.211ZM896.246 583.24V581.764H899.396C899.9 581.764 900.266 581.65 900.494 581.422C900.734 581.194 900.854 580.84 900.854 580.36V579.1L900.89 577.3H900.566L900.872 577.03C900.872 577.75 900.632 578.32 900.152 578.74C899.672 579.16 899.03 579.37 898.226 579.37C897.206 579.37 896.402 579.04 895.814 578.38C895.226 577.708 894.932 576.808 894.932 575.68V573.592C894.932 572.464 895.226 571.57 895.814 570.91C896.402 570.25 897.206 569.92 898.226 569.92C899.03 569.92 899.672 570.13 900.152 570.55C900.632 570.97 900.872 571.54 900.872 572.26L900.566 571.99H900.872V570.1H902.474V580.36C902.474 581.248 902.198 581.95 901.646 582.466C901.106 582.982 900.35 583.24 899.378 583.24H896.246ZM898.712 577.966C899.384 577.966 899.912 577.756 900.296 577.336C900.68 576.916 900.872 576.334 900.872 575.59V573.7C900.872 572.956 900.68 572.374 900.296 571.954C899.912 571.534 899.384 571.324 898.712 571.324C898.028 571.324 897.494 571.528 897.11 571.936C896.738 572.344 896.552 572.932 896.552 573.7V575.59C896.552 576.358 896.738 576.946 897.11 577.354C897.494 577.762 898.028 577.966 898.712 577.966ZM921.684 580C921.108 580 920.604 579.886 920.172 579.658C919.74 579.43 919.404 579.106 919.164 578.686C918.924 578.266 918.804 577.774 918.804 577.21V568.336H915.474V566.86H920.424V577.21C920.424 577.618 920.538 577.942 920.766 578.182C920.994 578.41 921.3 578.524 921.684 578.524H924.834V580H921.684ZM931.127 580.18C930.347 580.18 929.663 580.024 929.075 579.712C928.499 579.4 928.049 578.962 927.725 578.398C927.413 577.822 927.257 577.156 927.257 576.4V573.7C927.257 572.932 927.413 572.266 927.725 571.702C928.049 571.138 928.499 570.7 929.075 570.388C929.663 570.076 930.347 569.92 931.127 569.92C931.907 569.92 932.585 570.076 933.161 570.388C933.749 570.7 934.199 571.138 934.511 571.702C934.835 572.266 934.997 572.932 934.997 573.7V575.446H928.841V576.4C928.841 577.18 929.039 577.78 929.435 578.2C929.831 578.608 930.395 578.812 931.127 578.812C931.751 578.812 932.255 578.704 932.639 578.488C933.023 578.26 933.257 577.924 933.341 577.48H934.961C934.853 578.308 934.445 578.968 933.737 579.46C933.041 579.94 932.171 580.18 931.127 580.18ZM933.413 574.366V573.7C933.413 572.92 933.215 572.32 932.819 571.9C932.435 571.48 931.871 571.27 931.127 571.27C930.395 571.27 929.831 571.48 929.435 571.9C929.039 572.32 928.841 572.92 928.841 573.7V574.222H933.539L933.413 574.366ZM941.056 580.18C940.012 580.18 939.19 579.916 938.59 579.388C937.99 578.848 937.69 578.122 937.69 577.21C937.69 576.286 937.99 575.56 938.59 575.032C939.19 574.504 940 574.24 941.02 574.24H944.08V573.25C944.08 572.638 943.894 572.17 943.522 571.846C943.162 571.51 942.646 571.342 941.974 571.342C941.386 571.342 940.894 571.468 940.498 571.72C940.102 571.96 939.874 572.29 939.814 572.71H938.194C938.302 571.858 938.704 571.18 939.4 570.676C940.096 570.172 940.966 569.92 942.01 569.92C943.15 569.92 944.05 570.214 944.71 570.802C945.37 571.39 945.7 572.188 945.7 573.196V580H944.116V578.11H943.846L944.116 577.84C944.116 578.56 943.834 579.13 943.27 579.55C942.718 579.97 941.98 580.18 941.056 580.18ZM941.452 578.902C942.22 578.902 942.85 578.71 943.342 578.326C943.834 577.942 944.08 577.45 944.08 576.85V575.446H941.056C940.516 575.446 940.09 575.596 939.778 575.896C939.466 576.196 939.31 576.604 939.31 577.12C939.31 577.672 939.496 578.11 939.868 578.434C940.252 578.746 940.78 578.902 941.452 578.902ZM951.615 580L948.303 570.1H949.958L952.155 576.76C952.287 577.156 952.407 577.54 952.515 577.912C952.623 578.272 952.701 578.554 952.749 578.758C952.809 578.554 952.893 578.272 953.001 577.912C953.109 577.54 953.223 577.156 953.343 576.76L955.485 570.1H957.123L953.811 580H951.615ZM963.505 580.18C962.725 580.18 962.041 580.024 961.453 579.712C960.877 579.4 960.427 578.962 960.103 578.398C959.791 577.822 959.635 577.156 959.635 576.4V573.7C959.635 572.932 959.791 572.266 960.103 571.702C960.427 571.138 960.877 570.7 961.453 570.388C962.041 570.076 962.725 569.92 963.505 569.92C964.285 569.92 964.963 570.076 965.539 570.388C966.127 570.7 966.577 571.138 966.889 571.702C967.213 572.266 967.375 572.932 967.375 573.7V575.446H961.219V576.4C961.219 577.18 961.417 577.78 961.813 578.2C962.209 578.608 962.773 578.812 963.505 578.812C964.129 578.812 964.633 578.704 965.017 578.488C965.401 578.26 965.635 577.924 965.719 577.48H967.339C967.231 578.308 966.823 578.968 966.115 579.46C965.419 579.94 964.549 580.18 963.505 580.18ZM965.791 574.366V573.7C965.791 572.92 965.593 572.32 965.197 571.9C964.813 571.48 964.249 571.27 963.505 571.27C962.773 571.27 962.209 571.48 961.813 571.9C961.417 572.32 961.219 572.92 961.219 573.7V574.222H965.917L965.791 574.366ZM973.992 580.144C973.32 580.144 972.732 580.042 972.228 579.838C971.736 579.622 971.34 579.322 971.04 578.938C970.752 578.554 970.578 578.098 970.518 577.57H972.138C972.21 577.918 972.402 578.194 972.714 578.398C973.038 578.602 973.464 578.704 973.992 578.704H974.748C975.384 578.704 975.858 578.578 976.17 578.326C976.482 578.062 976.638 577.714 976.638 577.282C976.638 576.862 976.494 576.532 976.206 576.292C975.93 576.04 975.516 575.872 974.964 575.788L973.632 575.572C972.66 575.404 971.934 575.104 971.454 574.672C970.986 574.228 970.752 573.586 970.752 572.746C970.752 571.858 971.034 571.174 971.598 570.694C972.162 570.202 973.008 569.956 974.136 569.956H974.82C975.768 569.956 976.53 570.178 977.106 570.622C977.682 571.066 978.03 571.666 978.15 572.422H976.53C976.458 572.11 976.278 571.864 975.99 571.684C975.702 571.492 975.312 571.396 974.82 571.396H974.136C973.524 571.396 973.074 571.51 972.786 571.738C972.51 571.966 972.372 572.308 972.372 572.764C972.372 573.172 972.492 573.472 972.732 573.664C972.972 573.856 973.35 573.994 973.866 574.078L975.198 574.294C976.266 574.462 977.04 574.774 977.52 575.23C978.012 575.686 978.258 576.346 978.258 577.21C978.258 578.122 977.964 578.842 977.376 579.37C976.8 579.886 975.924 580.144 974.748 580.144H973.992ZM993.688 583.24L995.146 579.388L991.474 570.1H993.274L995.578 576.22C995.662 576.424 995.74 576.67 995.812 576.958C995.884 577.234 995.944 577.468 995.992 577.66C996.04 577.468 996.1 577.234 996.172 576.958C996.244 576.67 996.316 576.424 996.388 576.22L998.548 570.1H1000.29L995.416 583.24H993.688ZM1006.68 580.144C1005.89 580.144 1005.2 579.994 1004.63 579.694C1004.05 579.394 1003.6 578.962 1003.28 578.398C1002.96 577.822 1002.81 577.144 1002.81 576.364V573.736C1002.81 572.944 1002.96 572.266 1003.28 571.702C1003.6 571.138 1004.05 570.706 1004.63 570.406C1005.2 570.106 1005.89 569.956 1006.68 569.956C1007.47 569.956 1008.15 570.106 1008.73 570.406C1009.31 570.706 1009.75 571.138 1010.06 571.702C1010.39 572.266 1010.55 572.938 1010.55 573.718V576.364C1010.55 577.144 1010.39 577.822 1010.06 578.398C1009.75 578.962 1009.31 579.394 1008.73 579.694C1008.15 579.994 1007.47 580.144 1006.68 580.144ZM1006.68 578.704C1007.39 578.704 1007.94 578.506 1008.33 578.11C1008.73 577.714 1008.93 577.132 1008.93 576.364V573.736C1008.93 572.968 1008.73 572.386 1008.33 571.99C1007.94 571.594 1007.39 571.396 1006.68 571.396C1005.98 571.396 1005.43 571.594 1005.02 571.99C1004.63 572.386 1004.43 572.968 1004.43 573.736V576.364C1004.43 577.132 1004.63 577.714 1005.02 578.11C1005.43 578.506 1005.98 578.704 1006.68 578.704ZM1017.45 580.18C1016.31 580.18 1015.4 579.844 1014.72 579.172C1014.03 578.488 1013.69 577.564 1013.69 576.4V570.1H1015.31V576.4C1015.31 577.144 1015.5 577.726 1015.89 578.146C1016.27 578.554 1016.79 578.758 1017.45 578.758C1018.12 578.758 1018.65 578.554 1019.04 578.146C1019.43 577.726 1019.63 577.144 1019.63 576.4V570.1H1021.25V576.4C1021.25 577.564 1020.9 578.488 1020.21 579.172C1019.51 579.844 1018.59 580.18 1017.45 580.18ZM1024.86 580V570.1H1026.45V571.99H1026.82L1026.3 573.16C1026.3 572.092 1026.53 571.288 1026.99 570.748C1027.45 570.196 1028.14 569.92 1029.06 569.92C1030.1 569.92 1030.93 570.25 1031.54 570.91C1032.16 571.558 1032.48 572.44 1032.48 573.556V574.15H1030.86V573.7C1030.86 572.92 1030.66 572.326 1030.28 571.918C1029.91 571.498 1029.37 571.288 1028.68 571.288C1027.99 571.288 1027.45 571.498 1027.06 571.918C1026.67 572.338 1026.48 572.932 1026.48 573.7V580H1024.86ZM1050.43 580.18C1049.61 580.18 1048.96 579.964 1048.46 579.532C1047.97 579.088 1047.73 578.488 1047.73 577.732L1048.05 578.11H1047.73V580H1046.11V566.86H1047.73V569.74L1047.69 571.99H1048.05L1047.73 572.368C1047.73 571.624 1047.97 571.03 1048.46 570.586C1048.97 570.142 1049.62 569.92 1050.43 569.92C1051.42 569.92 1052.22 570.25 1052.82 570.91C1053.42 571.57 1053.72 572.47 1053.72 573.61V576.508C1053.72 577.636 1053.42 578.53 1052.82 579.19C1052.22 579.85 1051.42 580.18 1050.43 580.18ZM1049.89 578.776C1050.57 578.776 1051.11 578.572 1051.51 578.164C1051.9 577.756 1052.1 577.168 1052.1 576.4V573.7C1052.1 572.932 1051.9 572.344 1051.51 571.936C1051.11 571.528 1050.57 571.324 1049.89 571.324C1049.23 571.324 1048.7 571.534 1048.3 571.954C1047.92 572.374 1047.73 572.956 1047.73 573.7V576.4C1047.73 577.144 1047.92 577.726 1048.3 578.146C1048.7 578.566 1049.23 578.776 1049.89 578.776ZM1057.24 580V570.1H1058.82V571.99H1059.2L1058.68 573.16C1058.68 572.092 1058.91 571.288 1059.36 570.748C1059.83 570.196 1060.52 569.92 1061.43 569.92C1062.48 569.92 1063.31 570.25 1063.92 570.91C1064.54 571.558 1064.85 572.44 1064.85 573.556V574.15H1063.23V573.7C1063.23 572.92 1063.04 572.326 1062.66 571.918C1062.29 571.498 1061.75 571.288 1061.06 571.288C1060.37 571.288 1059.83 571.498 1059.44 571.918C1059.05 572.338 1058.86 572.932 1058.86 573.7V580H1057.24ZM1071.44 580.144C1070.64 580.144 1069.96 579.994 1069.38 579.694C1068.81 579.394 1068.36 578.962 1068.03 578.398C1067.72 577.822 1067.57 577.144 1067.57 576.364V573.736C1067.57 572.944 1067.72 572.266 1068.03 571.702C1068.36 571.138 1068.81 570.706 1069.38 570.406C1069.96 570.106 1070.64 569.956 1071.44 569.956C1072.23 569.956 1072.91 570.106 1073.49 570.406C1074.06 570.706 1074.51 571.138 1074.82 571.702C1075.14 572.266 1075.31 572.938 1075.31 573.718V576.364C1075.31 577.144 1075.14 577.822 1074.82 578.398C1074.51 578.962 1074.06 579.394 1073.49 579.694C1072.91 579.994 1072.23 580.144 1071.44 580.144ZM1071.44 578.704C1072.14 578.704 1072.7 578.506 1073.09 578.11C1073.49 577.714 1073.69 577.132 1073.69 576.364V573.736C1073.69 572.968 1073.49 572.386 1073.09 571.99C1072.7 571.594 1072.14 571.396 1071.44 571.396C1070.74 571.396 1070.19 571.594 1069.78 571.99C1069.38 572.386 1069.19 572.968 1069.19 573.736V576.364C1069.19 577.132 1069.38 577.714 1069.78 578.11C1070.19 578.506 1070.74 578.704 1071.44 578.704ZM1079.04 580L1077.46 570.1H1078.9L1079.89 577.12C1079.92 577.384 1079.96 577.672 1080 577.984C1080.04 578.284 1080.08 578.536 1080.1 578.74C1080.13 578.536 1080.16 578.284 1080.21 577.984C1080.27 577.672 1080.32 577.384 1080.36 577.12L1081.45 570.1H1083L1084.1 577.12C1084.14 577.384 1084.18 577.672 1084.23 577.984C1084.29 578.284 1084.33 578.536 1084.35 578.74C1084.38 578.536 1084.41 578.284 1084.46 577.984C1084.52 577.672 1084.57 577.384 1084.6 577.12L1085.63 570.1H1087L1085.34 580H1083.56L1082.5 573.16C1082.45 572.824 1082.4 572.488 1082.34 572.152C1082.28 571.816 1082.23 571.552 1082.21 571.36C1082.19 571.552 1082.15 571.816 1082.1 572.152C1082.05 572.488 1082 572.824 1081.94 573.16L1080.82 580H1079.04ZM1092.72 580.144C1092.04 580.144 1091.46 580.042 1090.95 579.838C1090.46 579.622 1090.06 579.322 1089.76 578.938C1089.48 578.554 1089.3 578.098 1089.24 577.57H1090.86C1090.93 577.918 1091.13 578.194 1091.44 578.398C1091.76 578.602 1092.19 578.704 1092.72 578.704H1093.47C1094.11 578.704 1094.58 578.578 1094.89 578.326C1095.21 578.062 1095.36 577.714 1095.36 577.282C1095.36 576.862 1095.22 576.532 1094.93 576.292C1094.65 576.04 1094.24 575.872 1093.69 575.788L1092.36 575.572C1091.38 575.404 1090.66 575.104 1090.18 574.672C1089.71 574.228 1089.48 573.586 1089.48 572.746C1089.48 571.858 1089.76 571.174 1090.32 570.694C1090.89 570.202 1091.73 569.956 1092.86 569.956H1093.54C1094.49 569.956 1095.25 570.178 1095.83 570.622C1096.41 571.066 1096.75 571.666 1096.87 572.422H1095.25C1095.18 572.11 1095 571.864 1094.71 571.684C1094.43 571.492 1094.04 571.396 1093.54 571.396H1092.86C1092.25 571.396 1091.8 571.51 1091.51 571.738C1091.23 571.966 1091.1 572.308 1091.1 572.764C1091.1 573.172 1091.22 573.472 1091.46 573.664C1091.7 573.856 1092.07 573.994 1092.59 574.078L1093.92 574.294C1094.99 574.462 1095.76 574.774 1096.24 575.23C1096.74 575.686 1096.98 576.346 1096.98 577.21C1096.98 578.122 1096.69 578.842 1096.1 579.37C1095.52 579.886 1094.65 580.144 1093.47 580.144H1092.72ZM1103.81 580.18C1103.03 580.18 1102.35 580.024 1101.76 579.712C1101.19 579.4 1100.74 578.962 1100.41 578.398C1100.1 577.822 1099.94 577.156 1099.94 576.4V573.7C1099.94 572.932 1100.1 572.266 1100.41 571.702C1100.74 571.138 1101.19 570.7 1101.76 570.388C1102.35 570.076 1103.03 569.92 1103.81 569.92C1104.59 569.92 1105.27 570.076 1105.85 570.388C1106.44 570.7 1106.89 571.138 1107.2 571.702C1107.52 572.266 1107.68 572.932 1107.68 573.7V575.446H1101.53V576.4C1101.53 577.18 1101.73 577.78 1102.12 578.2C1102.52 578.608 1103.08 578.812 1103.81 578.812C1104.44 578.812 1104.94 578.704 1105.33 578.488C1105.71 578.26 1105.94 577.924 1106.03 577.48H1107.65C1107.54 578.308 1107.13 578.968 1106.42 579.46C1105.73 579.94 1104.86 580.18 1103.81 580.18ZM1106.1 574.366V573.7C1106.1 572.92 1105.9 572.32 1105.51 571.9C1105.12 571.48 1104.56 571.27 1103.81 571.27C1103.08 571.27 1102.52 571.48 1102.12 571.9C1101.73 572.32 1101.53 572.92 1101.53 573.7V574.222H1106.23L1106.1 574.366ZM1111.21 580V570.1H1112.79V571.99H1113.17L1112.65 573.16C1112.65 572.092 1112.87 571.288 1113.33 570.748C1113.8 570.196 1114.49 569.92 1115.4 569.92C1116.44 569.92 1117.27 570.25 1117.88 570.91C1118.51 571.558 1118.82 572.44 1118.82 573.556V574.15H1117.2V573.7C1117.2 572.92 1117.01 572.326 1116.62 571.918C1116.25 571.498 1115.72 571.288 1115.02 571.288C1114.34 571.288 1113.8 571.498 1113.4 571.918C1113.02 572.338 1112.83 572.932 1112.83 573.7V580H1111.21Z" fill="#6B675C"/>
<g clip-path="url(#clip1_1503_1184)">
<path d="M393.188 124H122.812C83.7038 124 52 155.704 52 194.812V465.188C52 504.296 83.7038 536 122.812 536H393.188C432.296 536 464 504.296 464 465.188V194.812C464 155.704 432.296 124 393.188 124Z" fill="#0D0F14"/>
<path d="M190.406 169.062H119.594C107.15 169.062 97.0625 179.15 97.0625 191.594V262.406C97.0625 274.85 107.15 284.938 119.594 284.938H190.406C202.85 284.938 212.938 274.85 212.938 262.406V191.594C212.938 179.15 202.85 169.062 190.406 169.062Z" fill="#FBBF24"/>
<path d="M180.75 188.375H129.25C122.139 188.375 116.375 194.139 116.375 201.25V252.75C116.375 259.861 122.139 265.625 129.25 265.625H180.75C187.861 265.625 193.625 259.861 193.625 252.75V201.25C193.625 194.139 187.861 188.375 180.75 188.375Z" fill="#0D0F14"/>
<path d="M167.875 207.688H142.125C138.57 207.688 135.688 210.57 135.688 214.125V239.875C135.688 243.43 138.57 246.312 142.125 246.312H167.875C171.43 246.312 174.312 243.43 174.312 239.875V214.125C174.312 210.57 171.43 207.688 167.875 207.688Z" fill="#FBBF24"/>
<path d="M396.406 169.062H325.594C313.15 169.062 303.062 179.15 303.062 191.594V262.406C303.062 274.85 313.15 284.938 325.594 284.938H396.406C408.85 284.938 418.938 274.85 418.938 262.406V191.594C418.938 179.15 408.85 169.062 396.406 169.062Z" fill="#FBBF24"/>
<path d="M386.75 188.375H335.25C328.139 188.375 322.375 194.139 322.375 201.25V252.75C322.375 259.861 328.139 265.625 335.25 265.625H386.75C393.861 265.625 399.625 259.861 399.625 252.75V201.25C399.625 194.139 393.861 188.375 386.75 188.375Z" fill="#0D0F14"/>
<path d="M373.875 207.688H348.125C344.57 207.688 341.688 210.57 341.688 214.125V239.875C341.688 243.43 344.57 246.312 348.125 246.312H373.875C377.43 246.312 380.312 243.43 380.312 239.875V214.125C380.312 210.57 377.43 207.688 373.875 207.688Z" fill="#FBBF24"/>
<path d="M190.406 375.062H119.594C107.15 375.062 97.0625 385.15 97.0625 397.594V468.406C97.0625 480.85 107.15 490.938 119.594 490.938H190.406C202.85 490.938 212.938 480.85 212.938 468.406V397.594C212.938 385.15 202.85 375.062 190.406 375.062Z" fill="#FBBF24"/>
<path d="M180.75 394.375H129.25C122.139 394.375 116.375 400.139 116.375 407.25V458.75C116.375 465.861 122.139 471.625 129.25 471.625H180.75C187.861 471.625 193.625 465.861 193.625 458.75V407.25C193.625 400.139 187.861 394.375 180.75 394.375Z" fill="#0D0F14"/>
<path d="M167.875 413.688H142.125C138.57 413.688 135.688 416.57 135.688 420.125V445.875C135.688 449.43 138.57 452.312 142.125 452.312H167.875C171.43 452.312 174.312 449.43 174.312 445.875V420.125C174.312 416.57 171.43 413.688 167.875 413.688Z" fill="#FBBF24"/>
<path d="M345.947 389.547H320.387C316.152 389.547 312.719 392.98 312.719 397.215V422.776C312.719 427.011 316.152 430.444 320.387 430.444H345.947C350.183 430.444 353.616 427.011 353.616 422.776V397.215C353.616 392.98 350.183 389.547 345.947 389.547Z" fill="#E7E3D6"/>
<path d="M391.957 389.547H366.396C362.161 389.547 358.728 392.98 358.728 397.215V422.776C358.728 427.011 362.161 430.444 366.396 430.444H391.957C396.192 430.444 399.625 427.011 399.625 422.776V397.215C399.625 392.98 396.192 389.547 391.957 389.547Z" fill="#E7E3D6"/>
<path d="M345.947 435.557H320.387C316.152 435.557 312.719 438.99 312.719 443.225V468.785C312.719 473.02 316.152 476.453 320.387 476.453H345.947C350.183 476.453 353.616 473.02 353.616 468.785V443.225C353.616 438.99 350.183 435.557 345.947 435.557Z" fill="#E7E3D6"/>
<path d="M391.957 435.557H366.396C362.161 435.557 358.728 438.99 358.728 443.225V468.785C358.728 473.02 362.161 476.453 366.396 476.453H391.957C396.192 476.453 399.625 473.02 399.625 468.785V443.225C399.625 438.99 396.192 435.557 391.957 435.557Z" fill="#E7E3D6"/>
<path d="M249.106 309.832C249.956 309.832 250.645 309.14 250.645 308.286C250.645 307.432 249.956 306.74 249.106 306.74C248.257 306.74 247.568 307.432 247.568 308.286C247.568 309.14 248.257 309.832 249.106 309.832Z" fill="white"/>
<path d="M258.821 309.832C259.67 309.832 260.359 309.14 260.359 308.286C260.359 307.432 259.67 306.74 258.821 306.74C257.971 306.74 257.282 307.432 257.282 308.286C257.282 309.14 257.971 309.832 258.821 309.832Z" fill="white"/>
<path d="M294.5 314.466H266.322C266.803 312.823 267.091 310.987 267.091 309.152C267.091 300.553 266.033 291.375 254.3 291.375C248.53 291.375 241.605 294.467 241.509 309.152C241.509 311.181 241.894 313.113 242.471 314.949C240.836 315.722 239.682 317.364 239.682 319.296V324.996C235.162 326.735 231.122 330.503 231.122 337.17V341.324H219.582C218.812 341.324 218.043 341.614 217.562 342.194C217.081 342.87 216.889 343.643 216.985 344.416L220.64 364.994C220.736 365.477 220.832 365.864 221.12 366.25C220.736 366.347 220.447 366.733 220.447 367.12C220.447 367.603 220.832 367.989 221.313 368.086H221.409H230.161H232.084H253.723H276.516H285.172H285.46C285.556 368.086 285.653 368.086 285.653 367.989C286.999 367.699 288.057 366.54 288.057 365.187C288.057 363.642 286.807 362.289 285.172 362.289H277.766V356.396H294.5C297.097 356.396 299.309 354.27 299.309 351.565V319.296C299.309 316.591 297.097 314.466 294.5 314.466ZM247.472 300.843C246.799 301.809 245.933 302.389 245.26 302.389C244.875 302.389 244.683 302.292 244.49 302.002C244.49 301.906 244.394 301.906 244.394 301.906C244.779 300.457 245.26 299.201 245.837 298.138C246.125 299.104 246.702 299.974 247.472 300.843ZM252.582 298.391C251.719 297.204 250.963 295.693 250.963 295.693C250.531 294.074 250.855 295.369 250.531 293.858C250.916 293.471 250.639 293.858 251.287 293.858C251.864 295.597 252.259 295.801 253.662 297.636C255.065 299.471 256.576 299.971 259.059 300.658C260.786 300.843 262.667 301.133 264.398 300.457C264.591 301.036 264.687 301.616 264.783 302.292C259.707 302.389 256.407 300.633 255.065 299.039C254.14 297.611 253.159 299.185 252.582 298.391ZM252.043 296.017C253.986 298.688 257.499 298.619 259.707 298.068C261.434 297.636 261.218 297.636 262.189 297.096C262.513 297.42 263.244 297.934 263.485 298.283C259.383 300.334 254.215 298.499 253.338 296.88C252.151 295.64 253.446 294.578 253.446 293.307C254.119 293.211 251.287 296.017 252.043 296.017ZM253.77 297.312C255.281 298.931 255.713 296.017 261.002 296.017C260.138 298.175 253.23 298.043 252.259 296.988C252.259 296.988 253.122 297.528 253.77 297.312ZM243.625 309.152C243.625 307.316 243.721 305.577 243.913 304.128C244.298 304.321 244.779 304.418 245.26 304.418C245.356 304.418 245.356 304.418 245.356 304.418C246.702 304.321 249.462 301.159 250.424 299.903C250.808 300.192 253.77 298.607 253.77 299.795C256.037 301.522 255.929 301.906 258.843 303.789C260.678 304.742 262.837 305.3 265.104 305.3C265.2 306.749 265.264 307.413 265.264 309.152C265.36 310.987 265.072 312.823 264.494 314.466H244.49C244.49 314.466 244.49 314.466 244.394 314.466C243.913 312.823 243.625 310.987 243.625 309.152ZM218.908 344.126C218.812 343.836 218.908 343.643 219.005 343.546C219.101 343.449 219.293 343.353 219.485 343.353H233.527C234.104 343.353 234.681 343.836 234.777 344.416L238.432 364.994C238.528 365.284 238.432 365.477 238.335 365.574C238.239 365.671 238.047 365.767 237.855 365.767H230.545L232.469 354.367V354.174C232.469 352.628 231.026 351.372 229.872 351.372H226.121C224.967 351.372 223.621 352.531 223.525 354.077L222.178 362.579L218.908 344.126ZM228.43 365.767H223.813C223.717 365.767 223.717 365.767 223.621 365.767L225.352 354.367V354.174C225.352 353.787 225.833 353.401 225.929 353.401H229.68C229.872 353.497 230.257 353.787 230.257 354.174L228.43 365.767ZM285.172 364.221C285.653 364.221 286.037 364.608 286.037 365.091C286.037 365.574 285.653 365.96 285.172 365.96H253.723C253.242 365.96 252.858 365.574 252.858 365.091C252.858 364.608 253.242 364.221 253.723 364.221H261.225H277.766H285.172ZM253.723 362.289C252.184 362.289 250.838 363.545 250.838 365.187C250.838 365.574 250.934 365.864 251.03 366.154H240.259C240.451 365.671 240.547 365.091 240.451 364.608L236.797 344.029C236.604 342.483 235.162 341.324 233.623 341.324H233.046V337.17C233.046 331.276 236.7 328.474 239.682 327.218V351.565C239.682 354.27 241.894 356.396 244.49 356.396H261.225V362.289H253.723ZM263.244 362.192V335.914C263.244 334.368 264.687 333.112 265.552 333.112H273.439C274.4 333.112 275.747 334.368 275.747 335.914V362.192H263.244ZM297.289 351.565C297.289 353.111 296.039 354.367 294.5 354.367H277.766V335.914C277.766 333.208 275.362 331.083 273.439 331.083H265.552C263.533 331.083 261.225 333.208 261.225 335.914V354.367H244.49C242.952 354.367 241.701 353.111 241.701 351.565V319.296C241.701 317.75 242.952 316.494 244.49 316.494H294.5C296.039 316.494 297.289 317.75 297.289 319.296V351.565Z" fill="white"/>
<path d="M305.023 335.662C305.023 342.331 300.309 349.44 293.315 349.44C286.322 349.44 287.94 348.586 289.373 342.488C291.762 337.857 292.479 337.366 295.227 335.171C298.572 333.833 300.364 332.247 305.023 335.662Z" fill="white"/>
</g>
</g>
<defs>
<clipPath id="clip0_1503_1184">
<rect width="1200" height="630" fill="white"/>
</clipPath>
<clipPath id="clip1_1503_1184">
<rect width="412" height="412" fill="white" transform="translate(52 124)"/>
</clipPath>
</defs>
</svg>
